<svg xmlns="http://www.w3.org/2000/svg" xmlns:xlink="http://www.w3.org/1999/xlink" viewBox="0 0 314 256.48"><defs><style>.cls-1{fill:#f5c8c6;}.cls-2{fill:url(#linear-gradient);}.cls-3{fill:url(#linear-gradient-2);}.cls-4{fill:url(#linear-gradient-3);}.cls-5{fill:url(#linear-gradient-4);}.cls-6{fill:url(#linear-gradient-5);}.cls-7{fill:url(#linear-gradient-6);}.cls-8{fill:url(#linear-gradient-7);}.cls-9{fill:url(#linear-gradient-8);}.cls-10{fill:url(#linear-gradient-9);}.cls-11{fill:url(#linear-gradient-10);}.cls-12{fill:url(#linear-gradient-11);}.cls-13{fill:url(#linear-gradient-12);}.cls-14{fill:url(#linear-gradient-13);}.cls-15{fill:url(#linear-gradient-14);}.cls-16{fill:url(#linear-gradient-15);}.cls-17{fill:url(#linear-gradient-16);}.cls-18{fill:url(#linear-gradient-17);}.cls-19{fill:url(#linear-gradient-18);}.cls-20{fill:url(#linear-gradient-19);}.cls-21{fill:#fff;}.cls-22{fill:url(#linear-gradient-20);}.cls-23{fill:url(#linear-gradient-21);}.cls-24{fill:url(#linear-gradient-22);}.cls-25{fill:url(#linear-gradient-23);}.cls-26{fill:url(#linear-gradient-24);}.cls-27{fill:url(#linear-gradient-25);}.cls-28{fill:url(#linear-gradient-26);}.cls-29{fill:url(#linear-gradient-27);}.cls-30{fill:url(#linear-gradient-28);}.cls-31{fill:url(#linear-gradient-29);}.cls-32{fill:url(#linear-gradient-30);}.cls-33{fill:url(#linear-gradient-31);}.cls-34{fill:url(#linear-gradient-32);}.cls-35{fill:url(#linear-gradient-33);}.cls-36{fill:url(#linear-gradient-34);}.cls-37{fill:url(#linear-gradient-35);}.cls-38{fill:url(#linear-gradient-36);}.cls-39{fill:url(#linear-gradient-37);}.cls-40{opacity:0.7;fill:url(#linear-gradient-38);}.cls-117,.cls-120,.cls-121,.cls-128,.cls-129,.cls-40,.cls-88,.cls-90,.cls-91,.cls-92,.cls-93,.cls-94,.cls-95{isolation:isolate;}.cls-41{fill:url(#linear-gradient-39);}.cls-42{fill:url(#linear-gradient-40);}.cls-43{fill:url(#linear-gradient-41);}.cls-44{fill:url(#linear-gradient-42);}.cls-45{fill:url(#linear-gradient-43);}.cls-46{fill:url(#linear-gradient-44);}.cls-47{fill:url(#linear-gradient-45);}.cls-48{fill:url(#linear-gradient-46);}.cls-49{fill:url(#linear-gradient-47);}.cls-50{fill:url(#linear-gradient-48);}.cls-51{fill:url(#linear-gradient-49);}.cls-52{fill:url(#linear-gradient-50);}.cls-53{fill:url(#linear-gradient-51);}.cls-54{fill:url(#linear-gradient-52);}.cls-55{fill:url(#linear-gradient-53);}.cls-56{fill:url(#linear-gradient-54);}.cls-57{fill:url(#linear-gradient-55);}.cls-58{fill:url(#linear-gradient-56);}.cls-59{fill:url(#linear-gradient-57);}.cls-60{fill:url(#linear-gradient-58);}.cls-61{fill:url(#linear-gradient-59);}.cls-62{fill:url(#linear-gradient-60);}.cls-63{fill:url(#linear-gradient-61);}.cls-64{fill:url(#linear-gradient-62);}.cls-65{fill:url(#linear-gradient-63);}.cls-66{fill:url(#linear-gradient-64);}.cls-67{fill:url(#linear-gradient-65);}.cls-68{fill:url(#linear-gradient-66);}.cls-69{fill:url(#linear-gradient-67);}.cls-70{fill:url(#linear-gradient-68);}.cls-71{fill:url(#linear-gradient-69);}.cls-72{fill:url(#linear-gradient-70);}.cls-73{fill:url(#linear-gradient-71);}.cls-74{fill:url(#linear-gradient-72);}.cls-75{fill:url(#linear-gradient-73);}.cls-76{fill:url(#linear-gradient-74);}.cls-77{fill:url(#linear-gradient-75);}.cls-78{fill:#2b2b5e;}.cls-79{fill:url(#linear-gradient-76);}.cls-80{fill:url(#linear-gradient-77);}.cls-81{fill:url(#linear-gradient-78);}.cls-82{fill:url(#linear-gradient-79);}.cls-83{fill:url(#linear-gradient-80);}.cls-84{fill:url(#linear-gradient-81);}.cls-85{fill:url(#linear-gradient-82);}.cls-86{fill:url(#linear-gradient-83);}.cls-87{fill:url(#linear-gradient-84);}.cls-117,.cls-120,.cls-121,.cls-128,.cls-129,.cls-88,.cls-89,.cls-90,.cls-91,.cls-92,.cls-93,.cls-94,.cls-95{opacity:0.65;}.cls-88{fill:url(#linear-gradient-85);}.cls-90{fill:url(#linear-gradient-86);}.cls-91{fill:url(#linear-gradient-87);}.cls-92{fill:url(#linear-gradient-88);}.cls-93{fill:url(#linear-gradient-89);}.cls-94{fill:url(#linear-gradient-90);}.cls-95{fill:url(#linear-gradient-91);}.cls-96{fill:url(#linear-gradient-92);}.cls-97{fill:url(#linear-gradient-93);}.cls-98{fill:url(#linear-gradient-94);}.cls-99{fill:url(#linear-gradient-95);}.cls-100{fill:url(#linear-gradient-96);}.cls-101{fill:url(#linear-gradient-97);}.cls-102{fill:url(#linear-gradient-98);}.cls-103{fill:url(#linear-gradient-99);}.cls-104{fill:url(#linear-gradient-100);}.cls-105{fill:url(#linear-gradient-101);}.cls-106{fill:url(#linear-gradient-102);}.cls-107{fill:url(#linear-gradient-103);}.cls-108{fill:url(#linear-gradient-104);}.cls-109{fill:url(#linear-gradient-105);}.cls-110{fill:url(#linear-gradient-106);}.cls-111{fill:url(#linear-gradient-107);}.cls-112{fill:url(#linear-gradient-108);}.cls-113{fill:url(#linear-gradient-109);}.cls-114{fill:url(#linear-gradient-110);}.cls-115{fill:url(#linear-gradient-111);}.cls-116{fill:url(#linear-gradient-112);}.cls-117{fill:url(#linear-gradient-113);}.cls-118{fill:url(#linear-gradient-114);}.cls-119{fill:url(#linear-gradient-115);}.cls-120{fill:url(#linear-gradient-116);}.cls-121{fill:url(#linear-gradient-117);}.cls-122{fill:url(#linear-gradient-118);}.cls-123{fill:url(#linear-gradient-119);}.cls-124{fill:url(#linear-gradient-120);}.cls-125{fill:url(#linear-gradient-121);}.cls-126{fill:url(#linear-gradient-122);}.cls-127{fill:url(#linear-gradient-123);}.cls-128{fill:url(#linear-gradient-124);}.cls-129{fill:url(#linear-gradient-125);}.cls-130{fill:url(#linear-gradient-126);}.cls-131{fill:url(#linear-gradient-127);}.cls-132{fill:url(#linear-gradient-128);}.cls-133{fill:url(#linear-gradient-129);}.cls-134{fill:url(#linear-gradient-130);}.cls-135{fill:url(#linear-gradient-131);}.cls-136{fill:url(#linear-gradient-132);}.cls-137{fill:url(#linear-gradient-133);}.cls-138{fill:url(#linear-gradient-134);}.cls-139{fill:url(#linear-gradient-135);}.cls-140{fill:url(#linear-gradient-136);}.cls-141{fill:url(#linear-gradient-137);}.cls-142{fill:url(#linear-gradient-138);}.cls-143{fill:url(#linear-gradient-139);}.cls-144{fill:url(#linear-gradient-140);}.cls-145{fill:url(#linear-gradient-141);}</style><linearGradient id="linear-gradient" x1="-174.14" y1="197.53" x2="-182.04" y2="148.83" gradientTransform="matrix(1, 0, 0, -1, 287, 339.46)" gradientUnits="userSpaceOnUse"><stop offset="0" stop-color="#287484"/><stop offset="1" stop-color="#265f6b"/></linearGradient><linearGradient id="linear-gradient-2" x1="-125.38" y1="183.32" x2="-134.6" y2="172.63" xlink:href="#linear-gradient"/><linearGradient id="linear-gradient-3" x1="-175.14" y1="259.85" x2="-193.09" y2="141.49" gradientTransform="matrix(1, 0, 0, -1, 287, 339.46)" gradientUnits="userSpaceOnUse"><stop offset="0" stop-color="#29a8b9"/><stop offset="1" stop-color="#2092a1"/></linearGradient><linearGradient id="linear-gradient-4" x1="-183.69" y1="229.91" x2="-201.76" y2="259.47" gradientTransform="matrix(1, 0, 0, -1, 287, 339.46)" gradientUnits="userSpaceOnUse"><stop offset="0" stop-color="#228d9d" stop-opacity="0"/><stop offset="1" stop-color="#287984"/></linearGradient><linearGradient id="linear-gradient-5" x1="-211.11" y1="190.95" x2="-230.39" y2="215.35" xlink:href="#linear-gradient-4"/><linearGradient id="linear-gradient-6" x1="-193.85" y1="221.91" x2="-221.27" y2="220.82" gradientTransform="matrix(1, 0, 0, -1, 287, 339.46)" gradientUnits="userSpaceOnUse"><stop offset="0" stop-color="#a4d4e6"/><stop offset="1" stop-color="#8fcada" stop-opacity="0"/></linearGradient><linearGradient id="linear-gradient-7" x1="-193.36" y1="209.71" x2="-220.79" y2="208.61" xlink:href="#linear-gradient-6"/><linearGradient id="linear-gradient-8" x1="-193.79" y1="220.41" x2="-221.21" y2="219.31" xlink:href="#linear-gradient-6"/><linearGradient id="linear-gradient-9" x1="-194.04" y1="226.74" x2="-221.46" y2="225.64" xlink:href="#linear-gradient-6"/><linearGradient id="linear-gradient-10" x1="-193.5" y1="213.23" x2="-220.93" y2="212.14" xlink:href="#linear-gradient-6"/><linearGradient id="linear-gradient-11" x1="-193.45" y1="211.85" x2="-220.87" y2="210.76" xlink:href="#linear-gradient-6"/><linearGradient id="linear-gradient-12" x1="-216.43" y1="193.95" x2="-238.52" y2="207.09" xlink:href="#linear-gradient-6"/><linearGradient id="linear-gradient-13" x1="-222.38" y1="183.95" x2="-244.47" y2="197.1" xlink:href="#linear-gradient-6"/><linearGradient id="linear-gradient-14" x1="-217.51" y1="192.13" x2="-239.61" y2="205.27" xlink:href="#linear-gradient-6"/><linearGradient id="linear-gradient-15" x1="-213.88" y1="198.24" x2="-235.97" y2="211.38" xlink:href="#linear-gradient-6"/><linearGradient id="linear-gradient-16" x1="-221.1" y1="186.11" x2="-243.19" y2="199.26" xlink:href="#linear-gradient-6"/><linearGradient id="linear-gradient-17" x1="-220.05" y1="187.88" x2="-242.14" y2="201.02" xlink:href="#linear-gradient-6"/><linearGradient id="linear-gradient-18" x1="-188.88" y1="253.06" x2="-168.87" y2="126.81" xlink:href="#linear-gradient-4"/><linearGradient id="linear-gradient-19" x1="-189.17" y1="284.13" x2="-190.38" y2="224.14" xlink:href="#linear-gradient-6"/><linearGradient id="linear-gradient-20" x1="-170.9" y1="264.06" x2="-137.57" y2="252.48" gradientTransform="matrix(1, 0, 0, -1, 287, 339.46)" gradientUnits="userSpaceOnUse"><stop offset="0" stop-color="#fff"/><stop offset="1" stop-color="#d9dadb"/></linearGradient><linearGradient id="linear-gradient-21" x1="-178.85" y1="241.18" x2="-145.52" y2="229.6" xlink:href="#linear-gradient-20"/><linearGradient id="linear-gradient-22" x1="-188.24" y1="214.15" x2="-154.92" y2="202.57" xlink:href="#linear-gradient-20"/><linearGradient id="linear-gradient-23" x1="-151" y1="223.47" x2="-105.02" y2="204.69" gradientTransform="matrix(1, 0, 0, -1, 287, 339.46)" gradientUnits="userSpaceOnUse"><stop offset="0" stop-color="#228d9d" stop-opacity="0"/><stop offset="1" stop-color="#1e616a"/></linearGradient><linearGradient id="linear-gradient-24" x1="-231.03" y1="326.06" x2="-226.52" y2="326.06" xlink:href="#linear-gradient-3"/><linearGradient id="linear-gradient-25" x1="-195.61" y1="286.14" x2="-187.95" y2="286.14" xlink:href="#linear-gradient-3"/><linearGradient id="linear-gradient-26" x1="-125.98" y1="337.08" x2="-121.21" y2="337.08" xlink:href="#linear-gradient-3"/><linearGradient id="linear-gradient-27" x1="-85.31" y1="320.67" x2="-75.11" y2="320.67" xlink:href="#linear-gradient-3"/><linearGradient id="linear-gradient-28" x1="-87.54" y1="296.08" x2="-82.6" y2="296.08" xlink:href="#linear-gradient-3"/><linearGradient id="linear-gradient-29" x1="-79.94" y1="257.06" x2="-50.24" y2="183.54" gradientTransform="matrix(1, 0, 0, -1, 287, 339.46)" gradientUnits="userSpaceOnUse"><stop offset="0" stop-color="#e4cc5c"/><stop offset="1" stop-color="#ce8732"/></linearGradient><linearGradient id="linear-gradient-30" x1="-121.13" y1="207.05" x2="-123.82" y2="164.87" gradientTransform="matrix(1, 0, 0, -1, 287, 339.46)" gradientUnits="userSpaceOnUse"><stop offset="0" stop-color="#f9e480"/><stop offset="1" stop-color="#e39e35"/></linearGradient><linearGradient id="linear-gradient-31" x1="-61.41" y1="267.12" x2="-96.68" y2="162.8" xlink:href="#linear-gradient-30"/><linearGradient id="linear-gradient-32" x1="-55.42" y1="204.11" x2="-44.53" y2="234.93" gradientTransform="matrix(1, 0, 0, -1, 287, 339.46)" gradientUnits="userSpaceOnUse"><stop offset="0" stop-color="#fdf5d3"/><stop offset="1" stop-color="#f0c98b"/></linearGradient><linearGradient id="linear-gradient-33" x1="-78.15" y1="212.14" x2="-67.26" y2="242.96" xlink:href="#linear-gradient-32"/><linearGradient id="linear-gradient-34" x1="-64.78" y1="207.41" x2="-53.9" y2="238.24" xlink:href="#linear-gradient-32"/><linearGradient id="linear-gradient-35" x1="-40.75" y1="198.93" x2="-29.87" y2="229.76" xlink:href="#linear-gradient-32"/><linearGradient id="linear-gradient-36" x1="-121.42" y1="194.1" x2="-56.46" y2="248.98" gradientTransform="matrix(1, 0, 0, -1, 287, 339.46)" gradientUnits="userSpaceOnUse"><stop offset="0" stop-color="#e9d05b" stop-opacity="0"/><stop offset="1" stop-color="#d08732"/></linearGradient><linearGradient id="linear-gradient-37" x1="-124.14" y1="232.69" x2="1.18" y2="232.69" xlink:href="#linear-gradient-32"/><linearGradient id="linear-gradient-38" x1="14.12" y1="237.34" x2="-24.24" y2="243.71" gradientTransform="matrix(1, 0, 0, -1, 287, 339.46)" gradientUnits="userSpaceOnUse"><stop offset="0" stop-color="#e9d05b" stop-opacity="0"/><stop offset="1" stop-color="#b1632a"/></linearGradient><linearGradient id="linear-gradient-39" x1="-127.45" y1="251.07" x2="-102.35" y2="262.66" xlink:href="#linear-gradient-20"/><linearGradient id="linear-gradient-40" x1="-118.88" y1="232.5" x2="-93.78" y2="244.09" xlink:href="#linear-gradient-20"/><linearGradient id="linear-gradient-41" x1="-107.95" y1="208.84" x2="-82.86" y2="220.43" xlink:href="#linear-gradient-20"/><linearGradient id="linear-gradient-42" x1="-59.31" y1="294.18" x2="-58.31" y2="276.47" gradientTransform="matrix(1, 0, 0, -1, 287, 339.46)" gradientUnits="userSpaceOnUse"><stop offset="0" stop-color="#432050"/><stop offset="1" stop-color="#22123d"/></linearGradient><linearGradient id="linear-gradient-43" x1="-56.57" y1="295.71" x2="-58.15" y2="274.29" gradientTransform="matrix(1, 0, 0, -1, 287, 339.46)" gradientUnits="userSpaceOnUse"><stop offset="0" stop-color="#683a75"/><stop offset="1" stop-color="#3f2a63"/></linearGradient><linearGradient id="linear-gradient-44" x1="-57.44" y1="290.53" x2="-59.44" y2="266.05" gradientTransform="matrix(1, 0, 0, -1, 287, 339.46)" gradientUnits="userSpaceOnUse"><stop offset="0" stop-color="#a77aae"/><stop offset="1" stop-color="#7e60a4" stop-opacity="0"/></linearGradient><linearGradient id="linear-gradient-45" x1="-52.98" y1="261.98" x2="-23.24" y2="232.31" xlink:href="#linear-gradient-43"/><linearGradient id="linear-gradient-46" x1="-59.24" y1="265.85" x2="-25.65" y2="235.68" gradientTransform="matrix(1, 0, 0, -1, 287, 339.46)" gradientUnits="userSpaceOnUse"><stop offset="0" stop-color="#4f265d"/><stop offset="1" stop-color="#2b1d4a"/></linearGradient><linearGradient id="linear-gradient-47" x1="-61.48" y1="257.77" x2="-49.16" y2="252.57" xlink:href="#linear-gradient-44"/><linearGradient id="linear-gradient-48" x1="-11.18" y1="254.95" x2="-29.7" y2="217.08" xlink:href="#linear-gradient-44"/><linearGradient id="linear-gradient-49" x1="-58.17" y1="247.85" x2="-25.76" y2="247.85" gradientTransform="matrix(1, 0, 0, -1, 287, 339.46)" gradientUnits="userSpaceOnUse"><stop offset="0" stop-color="#a4d4e6"/><stop offset="1" stop-color="#8fcada"/></linearGradient><linearGradient id="linear-gradient-50" x1="-50.26" y1="260.34" x2="-47.3" y2="243.87" gradientTransform="matrix(1, 0, 0, -1, 287, 339.46)" gradientUnits="userSpaceOnUse"><stop offset="0" stop-color="#d7ecf7"/><stop offset="0.99" stop-color="#c5e3ef" stop-opacity="0"/></linearGradient><linearGradient id="linear-gradient-51" x1="-37.94" y1="262.55" x2="-34.98" y2="246.08" xlink:href="#linear-gradient-50"/><linearGradient id="linear-gradient-52" x1="-42.77" y1="252.89" x2="-38.85" y2="235.66" gradientTransform="matrix(1, 0, 0, -1, 287, 339.46)" gradientUnits="userSpaceOnUse"><stop offset="0" stop-color="#7fbbd2" stop-opacity="0"/><stop offset="1" stop-color="#6bb1c3"/></linearGradient><linearGradient id="linear-gradient-53" x1="3.56" y1="260.92" x2="4.99" y2="247.78" xlink:href="#linear-gradient-43"/><linearGradient id="linear-gradient-54" x1="10.32" y1="260.11" x2="13.26" y2="246.81" xlink:href="#linear-gradient-44"/><linearGradient id="linear-gradient-55" x1="3.49" y1="259.37" x2="5.93" y2="240.81" xlink:href="#linear-gradient-42"/><linearGradient id="linear-gradient-56" x1="-16.9" y1="317.29" x2="-13.69" y2="316.9" xlink:href="#linear-gradient-3"/><linearGradient id="linear-gradient-57" x1="-23.88" y1="314.91" x2="-24.11" y2="301.72" gradientTransform="matrix(1, 0, 0, -1, 287, 339.46)" gradientUnits="userSpaceOnUse"><stop offset="0" stop-color="#2c406b"/><stop offset="1" stop-color="#242250"/></linearGradient><linearGradient id="linear-gradient-58" x1="-34.12" y1="299.5" x2="-32.66" y2="298.35" xlink:href="#linear-gradient-3"/><linearGradient id="linear-gradient-59" x1="-25.86" y1="294.48" x2="-12.82" y2="268.22" xlink:href="#linear-gradient-43"/><linearGradient id="linear-gradient-60" x1="-26.71" y1="291.43" x2="-11.06" y2="272.71" xlink:href="#linear-gradient-46"/><linearGradient id="linear-gradient-61" x1="-25.73" y1="306.15" x2="-21.97" y2="288.68" xlink:href="#linear-gradient-44"/><linearGradient id="linear-gradient-62" x1="-31.51" y1="298.19" x2="-13.67" y2="283.49" xlink:href="#linear-gradient-44"/><linearGradient id="linear-gradient-63" x1="-47.34" y1="278.98" x2="-29.49" y2="264.28" xlink:href="#linear-gradient-44"/><linearGradient id="linear-gradient-64" x1="-6.32" y1="281.38" x2="0.27" y2="281.38" xlink:href="#linear-gradient-49"/><linearGradient id="linear-gradient-65" x1="13.04" y1="304.45" x2="16.28" y2="304.45" xlink:href="#linear-gradient-3"/><linearGradient id="linear-gradient-66" x1="6.4" y1="301.24" x2="7.77" y2="288.13" xlink:href="#linear-gradient-57"/><linearGradient id="linear-gradient-67" x1="-1.91" y1="284.7" x2="-0.32" y2="283.74" xlink:href="#linear-gradient-3"/><linearGradient id="linear-gradient-68" x1="-20.71" y1="289.44" x2="-23.64" y2="273.93" xlink:href="#linear-gradient-49"/><linearGradient id="linear-gradient-69" x1="-23.07" y1="287.43" x2="-27.47" y2="276.07" xlink:href="#linear-gradient-50"/><linearGradient id="linear-gradient-70" x1="-18.55" y1="285.68" x2="-22.95" y2="274.32" xlink:href="#linear-gradient-50"/><linearGradient id="linear-gradient-71" x1="-39.19" y1="292.92" x2="-42.12" y2="277.41" xlink:href="#linear-gradient-49"/><linearGradient id="linear-gradient-72" x1="-40.66" y1="294.25" x2="-45.07" y2="282.89" xlink:href="#linear-gradient-50"/><linearGradient id="linear-gradient-73" x1="-36.53" y1="292.64" x2="-40.93" y2="281.29" xlink:href="#linear-gradient-50"/><linearGradient id="linear-gradient-74" x1="-206.76" y1="231.29" x2="-218.66" y2="219.33" gradientTransform="matrix(1, 0, 0, -1, 287, 339.46)" gradientUnits="userSpaceOnUse"><stop offset="0" stop-color="#463f8f"/><stop offset="1" stop-color="#323678"/></linearGradient><linearGradient id="linear-gradient-75" x1="-206.93" y1="231.47" x2="-218.83" y2="219.5" gradientTransform="matrix(1, 0, 0, -1, 287, 339.46)" gradientUnits="userSpaceOnUse"><stop offset="0" stop-color="#463f8f" stop-opacity="0"/><stop offset="1" stop-color="#2b2b5e"/></linearGradient><linearGradient id="linear-gradient-76" x1="-220.7" y1="218.65" x2="-242.75" y2="208.51" xlink:href="#linear-gradient-74"/><linearGradient id="linear-gradient-77" x1="-210.57" y1="214.35" x2="-246.08" y2="211.88" xlink:href="#linear-gradient-75"/><linearGradient id="linear-gradient-78" x1="-164.87" y1="291.67" x2="-165.24" y2="271.36" gradientTransform="matrix(1, 0, 0, -1, 287, 339.46)" gradientUnits="userSpaceOnUse"><stop offset="0" stop-color="#885c3d"/><stop offset="1" stop-color="#6d1c1f"/></linearGradient><linearGradient id="linear-gradient-79" x1="-171.1" y1="289.56" x2="-166.9" y2="276.55" gradientTransform="matrix(1, 0, 0, -1, 287, 339.46)" gradientUnits="userSpaceOnUse"><stop offset="0" stop-color="#744826"/><stop offset="1" stop-color="#571516"/></linearGradient><linearGradient id="linear-gradient-80" x1="-162.53" y1="284.31" x2="-162.72" y2="279.72" xlink:href="#linear-gradient-78"/><linearGradient id="linear-gradient-81" x1="-162.36" y1="286.55" x2="-162.36" y2="280.71" xlink:href="#linear-gradient-78"/><linearGradient id="linear-gradient-82" x1="-162.19" y1="288.58" x2="-162.32" y2="283.74" xlink:href="#linear-gradient-78"/><linearGradient id="linear-gradient-83" x1="-196.57" y1="277.13" x2="-198.27" y2="255.74" gradientTransform="matrix(1, 0, 0, -1, 287, 339.46)" gradientUnits="userSpaceOnUse"><stop offset="0" stop-color="#d06f82"/><stop offset="1" stop-color="#cb3a60"/></linearGradient><linearGradient id="linear-gradient-84" x1="-224.19" y1="273.13" x2="-176.04" y2="273.13" gradientTransform="matrix(1, 0, 0, -1, 287, 339.46)" gradientUnits="userSpaceOnUse"><stop offset="0" stop-color="#f0d5e1"/><stop offset="1" stop-color="#dfacc7"/></linearGradient><linearGradient id="linear-gradient-85" x1="-196.29" y1="276.67" x2="-193.26" y2="249.34" gradientTransform="matrix(1, 0, 0, -1, 287, 339.46)" gradientUnits="userSpaceOnUse"><stop offset="0" stop-color="#b6465d" stop-opacity="0"/><stop offset="1" stop-color="#b12541"/></linearGradient><linearGradient id="linear-gradient-86" x1="-191.44" y1="273.18" x2="-187.64" y2="256.22" gradientTransform="matrix(1, 0, 0, -1, 287, 339.46)" gradientUnits="userSpaceOnUse"><stop offset="0" stop-color="#94243a" stop-opacity="0"/><stop offset="1" stop-color="#8e2427"/></linearGradient><linearGradient id="linear-gradient-87" x1="-189.27" y1="273.67" x2="-185.47" y2="256.7" xlink:href="#linear-gradient-86"/><linearGradient id="linear-gradient-88" x1="-182.43" y1="275.2" x2="-178.63" y2="258.24" xlink:href="#linear-gradient-86"/><linearGradient id="linear-gradient-89" x1="-185.69" y1="274.47" x2="-181.89" y2="257.51" xlink:href="#linear-gradient-86"/><linearGradient id="linear-gradient-90" x1="-203.14" y1="270.56" x2="-199.33" y2="253.6" xlink:href="#linear-gradient-86"/><linearGradient id="linear-gradient-91" x1="-200.8" y1="271.09" x2="-197" y2="254.12" xlink:href="#linear-gradient-86"/><linearGradient id="linear-gradient-92" x1="-257.44" y1="304.84" x2="-255.98" y2="270.4" xlink:href="#linear-gradient-57"/><linearGradient id="linear-gradient-93" x1="-259.21" y1="302.67" x2="-251.45" y2="274.78" gradientTransform="matrix(1, 0, 0, -1, 287, 339.46)" gradientUnits="userSpaceOnUse"><stop offset="0" stop-color="#253055" stop-opacity="0"/><stop offset="1" stop-color="#18193d"/></linearGradient><linearGradient id="linear-gradient-94" x1="-249.6" y1="307.5" x2="-246.56" y2="296.75" gradientTransform="matrix(1, 0, 0, -1, 287, 339.46)" gradientUnits="userSpaceOnUse"><stop offset="0" stop-color="#3b5d9c"/><stop offset="1" stop-color="#34347f"/></linearGradient><linearGradient id="linear-gradient-95" x1="-257.33" y1="285.69" x2="-256.02" y2="281.05" xlink:href="#linear-gradient-94"/><linearGradient id="linear-gradient-96" x1="-269.04" y1="295.17" x2="-266.12" y2="284.82" xlink:href="#linear-gradient-94"/><linearGradient id="linear-gradient-97" x1="-271.03" y1="302.24" x2="-269.9" y2="298.23" xlink:href="#linear-gradient-94"/><linearGradient id="linear-gradient-98" x1="-233.88" y1="314.18" x2="-287.14" y2="295" gradientTransform="matrix(1, 0, 0, -1, 287, 339.46)" gradientUnits="userSpaceOnUse"><stop offset="0" stop-color="#9e98c6"/><stop offset="1" stop-color="#8586be"/></linearGradient><linearGradient id="linear-gradient-99" x1="-285.37" y1="260.63" x2="-277.51" y2="240.38" xlink:href="#linear-gradient-43"/><linearGradient id="linear-gradient-100" x1="-285.72" y1="255.34" x2="-274.59" y2="236.7" xlink:href="#linear-gradient-43"/><linearGradient id="linear-gradient-101" x1="-285.07" y1="249.68" x2="-269.48" y2="234.59" xlink:href="#linear-gradient-43"/><linearGradient id="linear-gradient-102" x1="-283.27" y1="243.56" x2="-265.22" y2="231.53" xlink:href="#linear-gradient-43"/><linearGradient id="linear-gradient-103" x1="-271.86" y1="290.55" x2="-174.34" y2="39.44" xlink:href="#linear-gradient-43"/><linearGradient id="linear-gradient-104" x1="1856.61" y1="516.91" x2="2266.14" y2="564.37" gradientTransform="matrix(1, 0, 0, -1, 287, 339.46)" gradientUnits="userSpaceOnUse"><stop offset="0" stop-color="#dc8fa8"/><stop offset="1" stop-color="#d37195"/></linearGradient><linearGradient id="linear-gradient-105" x1="-266.31" y1="267.29" x2="-252.57" y2="251.05" xlink:href="#linear-gradient-46"/><linearGradient id="linear-gradient-106" x1="-222.93" y1="271.97" x2="-230.14" y2="226.96" xlink:href="#linear-gradient-30"/><linearGradient id="linear-gradient-107" x1="-225.53" y1="273.96" x2="-229.44" y2="221.94" xlink:href="#linear-gradient-36"/><linearGradient id="linear-gradient-108" x1="-223.34" y1="250.14" x2="-231.12" y2="234.54" xlink:href="#linear-gradient-32"/><linearGradient id="linear-gradient-109" x1="-229.85" y1="234.61" x2="-232.34" y2="229.62" xlink:href="#linear-gradient-32"/><linearGradient id="linear-gradient-110" x1="-215.91" y1="232.19" x2="-205.78" y2="232.19" xlink:href="#linear-gradient-83"/><linearGradient id="linear-gradient-111" x1="-214.88" y1="267.86" x2="-217.42" y2="239.9" xlink:href="#linear-gradient-83"/><linearGradient id="linear-gradient-112" x1="-214.89" y1="278.81" x2="-217.33" y2="261.8" xlink:href="#linear-gradient-84"/><linearGradient id="linear-gradient-113" x1="-212.88" y1="243.68" x2="-212.88" y2="233.26" xlink:href="#linear-gradient-85"/><linearGradient id="linear-gradient-114" x1="-257.41" y1="225.75" x2="-232.55" y2="225.75" xlink:href="#linear-gradient-83"/><linearGradient id="linear-gradient-115" x1="-242.63" y1="268.8" x2="-245" y2="216.78" xlink:href="#linear-gradient-83"/><linearGradient id="linear-gradient-116" x1="-243.73" y1="256.07" x2="-240.28" y2="272.52" xlink:href="#linear-gradient-85"/><linearGradient id="linear-gradient-117" x1="-223.05" y1="265.54" x2="-250.11" y2="227.83" xlink:href="#linear-gradient-85"/><linearGradient id="linear-gradient-118" x1="-242.65" y1="236.96" x2="-255.4" y2="238.7" xlink:href="#linear-gradient-86"/><linearGradient id="linear-gradient-119" x1="-228.51" y1="283.39" x2="-235.2" y2="267.59" xlink:href="#linear-gradient-43"/><linearGradient id="linear-gradient-120" x1="-223.91" y1="269.6" x2="-230.22" y2="278.26" xlink:href="#linear-gradient-44"/><linearGradient id="linear-gradient-121" x1="-225.2" y1="278.47" x2="-245.9" y2="278.47" xlink:href="#linear-gradient-46"/><linearGradient id="linear-gradient-122" x1="-216.56" y1="278.23" x2="-229.78" y2="278.23" xlink:href="#linear-gradient-104"/><linearGradient id="linear-gradient-123" x1="-257.25" y1="251.47" x2="-237.17" y2="230.94" xlink:href="#linear-gradient-83"/><linearGradient id="linear-gradient-124" x1="-264.69" y1="250.55" x2="-252.19" y2="234.01" xlink:href="#linear-gradient-85"/><linearGradient id="linear-gradient-125" x1="-249.57" y1="257.3" x2="-246.13" y2="273.74" xlink:href="#linear-gradient-85"/><linearGradient id="linear-gradient-126" x1="-269.55" y1="256.1" x2="-249.83" y2="256.1" xlink:href="#linear-gradient-84"/><linearGradient id="linear-gradient-127" x1="-255.54" y1="254.48" x2="-237.49" y2="245.25" xlink:href="#linear-gradient-86"/><linearGradient id="linear-gradient-128" x1="-261.83" y1="242.18" x2="-243.79" y2="232.95" xlink:href="#linear-gradient-86"/><linearGradient id="linear-gradient-129" x1="-264.6" y1="248.67" x2="-258.92" y2="225.85" xlink:href="#linear-gradient-86"/><linearGradient id="linear-gradient-130" x1="-255.78" y1="246.64" x2="-258.24" y2="239.2" xlink:href="#linear-gradient-78"/><linearGradient id="linear-gradient-131" x1="-258.58" y1="244.98" x2="-268.4" y2="223.14" xlink:href="#linear-gradient-78"/><linearGradient id="linear-gradient-132" x1="-233.18" y1="301.48" x2="-235.04" y2="297.78" xlink:href="#linear-gradient-43"/><linearGradient id="linear-gradient-133" x1="-223.01" y1="292.62" x2="-240.4" y2="282.95" xlink:href="#linear-gradient-78"/><linearGradient id="linear-gradient-134" x1="-221.37" y1="292.85" x2="-225.54" y2="282.1" xlink:href="#linear-gradient-57"/><linearGradient id="linear-gradient-135" x1="-225.94" y1="295.63" x2="-233.55" y2="284.22" xlink:href="#linear-gradient-57"/><linearGradient id="linear-gradient-136" x1="-220.49" y1="292.65" x2="-223.56" y2="280.72" xlink:href="#linear-gradient-57"/><linearGradient id="linear-gradient-137" x1="-226.24" y1="294.75" x2="-230.42" y2="284" xlink:href="#linear-gradient-57"/><linearGradient id="linear-gradient-138" x1="-220.1" y1="292.36" x2="-224.27" y2="281.61" xlink:href="#linear-gradient-57"/><linearGradient id="linear-gradient-139" x1="-225.37" y1="296.86" x2="-242.76" y2="287.2" xlink:href="#linear-gradient-57"/><linearGradient id="linear-gradient-140" x1="-232.85" y1="291.75" x2="-238.84" y2="285.43" xlink:href="#linear-gradient-78"/><linearGradient id="linear-gradient-141" x1="-217.67" y1="296" x2="-236.54" y2="296" xlink:href="#linear-gradient-104"/></defs><g id="Layer_2" data-name="Layer 2"><g id="Layer_1-2" data-name="Layer 1"><path class="cls-1" d="M55.15,169.51c6.53,25.6,34.23,43.11,34.91,47.42s-2.42,5.93,0,9.17,8.77,1.08,6.55,4.85,2.24,7.81,7.79,5.92,2.63,3.5,9.74,8.09,38.42,8.89,44.11,5.39,4.35,2.42,12.92,5.66,70.34-11,83.24-22.9,5.75-24.79,8.88-26.68,7.11,1.61,9.14-3-.27-8.89,6.67-8.35,9.51-4,13.32-19.4-7.94-30.72-7.26-32.33,2.54-4.31,1.33-8.63-6.77-5.39-4.64-8.09,3.36-12.51-3.86-13.74c-4.76-.81.51,12.13.36,16.71s-2.74,3.5-2.55,7.28,2.62,6.73,1,9.69-6.23.54-6.45,5.93-8,19.67-14.13,25.33-12.26-1.08-22.08.54-7.34,9.69-23.66,14.82-46.07,7.27-52.28,7.54-5.3-.81-8.92-2.42-6,4-12.92,3.23-7.77-9.16-13.53-10.78-12.21,4.31-26.11-2.42-25.84-14.29-32.6-28.57S48.62,143.91,55.15,169.51Zm219.93,6.18a103.53,103.53,0,0,0,5.12-17.62,2.82,2.82,0,0,1,.44-1.17c.28-.34.81-.51,1.1-.25a1,1,0,0,1,.25.46l1.77,5.25-.77,4.12a31.13,31.13,0,0,1-6.58,14.28,1.18,1.18,0,0,1-.63.48.84.84,0,0,1-.69-.23C273.71,179.84,274.38,177.51,275.08,175.69Zm-62.76,33.4c6.43-.67,12.3-4.93,18.7-6.1,2.06-.38,4.16-.43,6.19-1a7.61,7.61,0,0,0,5-3.76l2-3.27,8-3.42c2.11-.9,5-1.62,6.1.18-7.3,10.35-20,15.16-31.79,19.29a32.94,32.94,0,0,1-8.44,2.15,14.58,14.58,0,0,1-9.12-2.34C209.25,209.51,211,209.23,212.32,209.09Zm-46.09,19.75a43.85,43.85,0,0,0,16.8-.36l2.73-2.67a28.69,28.69,0,0,1,13.35-2c.86.09,1.9.37,2,1.23s-.54,1.43-1.16,1.93a24.36,24.36,0,0,1-12.33,5.33,42.32,42.32,0,0,1-5.62.22l-10,0a9.73,9.73,0,0,1-3.9-.56A3,3,0,0,1,166.23,228.84ZM116.78,213.1a2.65,2.65,0,0,1,3.15-3.24L142,215.61l2.79,0,31.88,1c1.17,0,2.47.13,3,1.25a2.62,2.62,0,0,1-.26,2.54,6.24,6.24,0,0,1-3.89,2.43c-8.6,2.31-17.21-1.65-25.93-.34a4.64,4.64,0,0,0-2.69,1.1c-.55.56-.85,1.35-1.49,1.81-.92.66-2.12.35-3.12,0l-16-5.36c-2.61-.87-5.28-1.79-7.29-3.59A8.1,8.1,0,0,1,116.78,213.1ZM89.13,199a1,1,0,0,1,.69,0l3.29.58,2.62.69a24.13,24.13,0,0,1,7.74,3.41,2.27,2.27,0,0,1,1.13,1.38,1.93,1.93,0,0,1-1.1,1.85,4,4,0,0,1-2.2.36c-2.84-.19-5.37-1.51-7.81-2.8-1.92-1-4-2.21-4.61-4.31C88.77,199.77,88.76,199.26,89.13,199Z"/><path class="cls-1" d="M27,151.47c6.73.25,6.25,2.76,8.84,12.78s9.3,13,8.28,16-9.45-3.26-11.72-5.77,3.06,15.79,6.46,19.55,7.86,1.5,8.59,7.27,9.85,12.53,10.82,15.53S42,212.11,31,195.58s-13.57-29.32-14-41.35,3.66-12.78,6.21-10.52S27,151.47,27,151.47Z"/><path class="cls-1" d="M156.7,19.51c10.62-1.8,48.64,1,64.51,10.83S240.59,50.91,239.7,54s-13.39-4.79-17.78-3-10.77,4.9-14.63,1.23S182.9,37.67,172,35.64s-7.23-3.32-.92-5.54-13.2-6.26-22-5.94S146,21.33,156.7,19.51Z"/><path class="cls-1" d="M125.86,22.59c8.46,2.17,2.92,6.52-6.23,9s-10.77,5.43-15.74,9.5-6.18,2.44-12,3.53S80,47.56,75.12,53.8,67.75,42.68,88.29,31,125.86,22.59,125.86,22.59Z"/><path class="cls-1" d="M117.59,43.94c-5.32.92-4-2.42,3.15-4.89S132,41.45,117.59,43.94Z"/><path class="cls-1" d="M170.09,46.9c3.63-3.91,19.52,3.88,17.4,8.82S165.93,51.37,170.09,46.9Z"/><path class="cls-1" d="M96.76,172.77c6.72,3.54,10,11.82,0,7.09S82.62,165.35,96.76,172.77Z"/><path class="cls-2" d="M44,172s7.64,10.79,14.74,12.72,77.68-8.86,90.84-12,22-6.45,23.73-10.68,2.11-18,2.11-18Z"/><path class="cls-3" d="M136.76,161.24l2.8,13.47s11.28,9.08,15.4,9.75,3.83-1.9,4.36-4.42c.44-2.15.87-5.48.87-5.48Z"/><path class="cls-4" d="M175.4,144c-1,4.94-7.34,8.65-20.83,12.64,1.47,5.61,3.79,12.26,5.44,16.74a2.9,2.9,0,0,1-3.72,3.74c-9.12-3.36-15.95-11.09-19.53-15.93l-5.69,1.29c-29.93,6.64-81.75,12.12-85.49,10.68-1.11-.43-2.34-1.78-3.6-4-2.14-3.8-4.32-10.18-6-18.94-.43-2.3-.83-4.75-1.19-7.37-.16-1.22-.31-2.47-.45-3.77-2.06-18.56-.18-36.09,2.27-42.6a8.63,8.63,0,0,1,.9-1.85c7.06-10.4,70.8-23.35,103-26.09,9.8-.83,16.69-.72,18.17.69a10.1,10.1,0,0,1,1.81,2.87C167,85.88,176.71,137.47,175.4,144Z"/><path class="cls-5" d="M98.53,75.26S93,91.59,91.39,92.5s-15.24-.89-15.24-.89L73.37,77.47Z"/><path class="cls-6" d="M86.21,115.21l-6.68,13.72-23.7,1.63-.18,18.09L34.82,142.9c-.16-1.21-.32-2.47-.46-3.76-2-18.56-.17-36.1,2.28-42.61Z"/><path class="cls-7" d="M86.26,113.12a2.68,2.68,0,0,1,.42.19,3.33,3.33,0,0,1,.45.27,3.83,3.83,0,0,1,.55.42,5.29,5.29,0,0,1,.58.58,5.22,5.22,0,0,1,.54.74,6.14,6.14,0,0,1,.47.88c.13.31.23.64.34,1s.15.67.19,1,0,.67,0,1,0,.62,0,.91-.1.56-.15.8a7.25,7.25,0,0,1-.36,1.15c-.1.27-.17.42-.17.42V122c0-.15,0-.32,0-.52s0-.42,0-.66V120c0-.27,0-.55-.07-.84s-.09-.59-.12-.89-.13-.6-.19-.91-.17-.59-.28-.87a6.77,6.77,0,0,0-.36-.82c-.12-.26-.26-.5-.39-.73s-.28-.45-.43-.64A9,9,0,0,0,86.26,113.12Z"/><path class="cls-8" d="M87.6,128.84l-.12.11-.35.32c-.32.24-.79.58-1.35,1a10,10,0,0,1-1,.55,7.16,7.16,0,0,1-1.15.53,8.85,8.85,0,0,1-1.29.42A9.31,9.31,0,0,1,81,132l-.71.05-.71,0-.35,0-.35-.07c-.22,0-.45-.09-.67-.15a6.07,6.07,0,0,1-1.19-.5,5.91,5.91,0,0,1-1-.63,6.5,6.5,0,0,1-.7-.67,7.24,7.24,0,0,1-.45-.58,4.56,4.56,0,0,1-.31-.56,5.53,5.53,0,0,0,.44.45c.15.12.32.28.55.44s.48.33.75.51a8.42,8.42,0,0,0,.95.45,9,9,0,0,0,1.11.35,8.43,8.43,0,0,0,1.23.15l.64,0,.65-.06a7.76,7.76,0,0,0,1.28-.2,9.63,9.63,0,0,0,1.23-.32,8.3,8.3,0,0,0,1.13-.4c.35-.15.7-.24,1-.39.62-.3,1.14-.53,1.51-.68Z"/><path class="cls-9" d="M86.53,111.56h.21a2.59,2.59,0,0,1,.59.07,4.14,4.14,0,0,1,.89.29,4.63,4.63,0,0,1,1,.64,7.51,7.51,0,0,1,2,2.35,10.82,10.82,0,0,1,.71,1.58,12.69,12.69,0,0,1,.45,1.74,10.8,10.8,0,0,1,.14,1.79,9.85,9.85,0,0,1-.14,1.73,8.89,8.89,0,0,1-.4,1.56,8.58,8.58,0,0,1-.57,1.33,9.3,9.3,0,0,1-.63,1,9,9,0,0,1-.58.72c-.17.2-.32.33-.41.43a1.64,1.64,0,0,0-.15.15l.42-.68c.11-.22.28-.48.43-.79s.31-.67.47-1.07a12.52,12.52,0,0,0,.4-1.3,11.27,11.27,0,0,0,.26-1.49,12.16,12.16,0,0,0,.07-1.61,13.5,13.5,0,0,0-.16-1.66,10.8,10.8,0,0,0-.39-1.61,13.37,13.37,0,0,0-.59-1.5,10.1,10.1,0,0,0-.76-1.3,8.22,8.22,0,0,0-.86-1,5.25,5.25,0,0,0-1.66-1.14c-.23-.08-.42-.15-.55-.18Z"/><path class="cls-10" d="M79.41,114.86a2.82,2.82,0,0,1,.39-1,3.7,3.7,0,0,1,.29-.44,4.72,4.72,0,0,1,.37-.43,5.21,5.21,0,0,1,1-.79,4.81,4.81,0,0,1,1.14-.51,4.3,4.3,0,0,1,.57-.14,4.7,4.7,0,0,1,.51-.06,3.56,3.56,0,0,1,.76,0l.29,0-.26.13-.3.13c-.12,0-.24.11-.38.16s-.29.12-.43.2l-.47.22c-.32.17-.66.35-1,.55s-.64.4-.94.62-.55.42-.78.61C79.72,114.57,79.41,114.86,79.41,114.86Z"/><path class="cls-11" d="M88.53,123.82a2.75,2.75,0,0,1-.09.37,5.16,5.16,0,0,1-.39,1,6.45,6.45,0,0,1-.81,1.19,8.62,8.62,0,0,1-1.17,1.17l-.68.49c-.23.15-.47.28-.69.41a8.27,8.27,0,0,1-1.31.57,7.27,7.27,0,0,1-1,.26l-.38.07.31-.23c.2-.13.49-.31.82-.54.17-.12.35-.24.55-.36a6.79,6.79,0,0,1,.59-.41c.2-.15.39-.31.61-.45l.62-.48c.2-.17.41-.33.59-.5s.4-.33.57-.51.35-.33.51-.5l.44-.46C88.18,124.27,88.53,123.82,88.53,123.82Z"/><path class="cls-12" d="M75.82,126.67s.23.28.56.65a8.16,8.16,0,0,0,.59.58,6.74,6.74,0,0,0,.7.58c.12.1.26.16.38.26s.26.15.39.23l.38.2c.12.07.25.12.36.18l.56.26a1.77,1.77,0,0,1,.22.11l-.24.06a2.89,2.89,0,0,1-.66.05,2.39,2.39,0,0,1-.44,0,3.06,3.06,0,0,1-.48-.12,3.5,3.5,0,0,1-1-.5,3.35,3.35,0,0,1-1.2-1.61A2,2,0,0,1,75.82,126.67Z"/><path class="cls-13" d="M73.28,140.8a2.34,2.34,0,0,1,0,.52,4.66,4.66,0,0,1-.25,1.34l-.15.42c-.06.14-.13.28-.2.43a6.24,6.24,0,0,1-.52.89,9.28,9.28,0,0,1-.68.87,8.63,8.63,0,0,1-.8.8l-.42.37-.45.34a6.94,6.94,0,0,1-.9.59,8.71,8.71,0,0,1-.88.49l-.82.37a10.69,10.69,0,0,1-1.27.45l-.49.13.42-.29c.26-.19.65-.42,1.1-.73l.73-.49c.26-.16.5-.38.79-.56l.41-.3.4-.33.42-.32.39-.36a8.79,8.79,0,0,0,.76-.73c.25-.24.47-.5.69-.75s.41-.51.57-.76.32-.5.45-.73a5.53,5.53,0,0,0,.32-.65c.09-.2.16-.38.21-.53A3,3,0,0,0,73.28,140.8Z"/><path class="cls-14" d="M58.6,152.63l-.62,0a15,15,0,0,1-1.65-.06c-.34,0-.71-.08-1.1-.13A12,12,0,0,1,54,152.2a9.55,9.55,0,0,1-1.28-.42,7.33,7.33,0,0,1-1.26-.68,4.28,4.28,0,0,1-1-1,2.9,2.9,0,0,1-.53-1.38,3.86,3.86,0,0,1,.55-2.41,6.64,6.64,0,0,1,1-1.33,4.88,4.88,0,0,1,.47-.41s-.13.19-.34.53a8.67,8.67,0,0,0-.7,1.43,3.77,3.77,0,0,0-.25,2.07,2.37,2.37,0,0,0,.46,1,3.38,3.38,0,0,0,.87.81,5.58,5.58,0,0,0,1.09.62,11.33,11.33,0,0,0,1.17.46c.38.14.77.24,1.14.36l1,.28,1.58.37Z"/><path class="cls-15" d="M75,139.9s0,.08.13.22a2.8,2.8,0,0,1,.28.65,4.12,4.12,0,0,1,.19,1.11,5.08,5.08,0,0,1-.14,1.46,6.92,6.92,0,0,1-.59,1.62,9.41,9.41,0,0,1-1,1.64,12.38,12.38,0,0,1-1.37,1.54,16.45,16.45,0,0,1-1.63,1.35,17,17,0,0,1-3.64,2,15.74,15.74,0,0,1-1.81.58,12.78,12.78,0,0,1-1.66.36,14,14,0,0,1-1.41.18l-1.09.06h-1l.94-.17a23.16,23.16,0,0,0,2.42-.56c.25-.06.5-.13.76-.22s.54-.16.81-.27c.55-.19,1.12-.41,1.7-.67s1.16-.57,1.74-.88a15.62,15.62,0,0,0,1.69-1.08,14.78,14.78,0,0,0,2.9-2.65A9.66,9.66,0,0,0,75,143.19a5.42,5.42,0,0,0,.29-1.33,4.06,4.06,0,0,0,0-1.06,5.32,5.32,0,0,0-.17-.67Z"/><path class="cls-16" d="M64.41,139.14a6,6,0,0,1,1.38-.87,8.72,8.72,0,0,1,1.58-.59c.31-.07.62-.16.94-.2a7.93,7.93,0,0,1,1-.1,8.18,8.18,0,0,1,1,0,6,6,0,0,1,1,.13,5.83,5.83,0,0,1,.87.22l.39.13.35.16a5.58,5.58,0,0,1,.6.3,3.53,3.53,0,0,1,.43.29l.37.26a4.43,4.43,0,0,1-.44-.11l-.48-.14c-.19,0-.41-.07-.63-.13s-.48-.1-.74-.13-.54-.08-.83-.1-.59,0-.89,0h-.45l-.46,0a15,15,0,0,0-1.8.18c-.28.06-.57.09-.83.15s-.51.1-.74.16c-.46.11-.85.21-1.12.29Z"/><path class="cls-17" d="M63.72,149.31a7.09,7.09,0,0,1-1.4.66,11.48,11.48,0,0,1-1.53.42,11.65,11.65,0,0,1-1.82.2c-.31,0-.63,0-.93,0a8.16,8.16,0,0,1-.9-.12,6.7,6.7,0,0,1-.83-.22,5.84,5.84,0,0,1-.71-.28c-.21-.1-.4-.21-.57-.3s-.29-.21-.4-.29l-.33-.27.41.11a4.12,4.12,0,0,0,.45.14l.59.14c.22.06.46.07.7.12s.52,0,.79.09.55,0,.84.05.58,0,.87,0l.88,0c.28,0,.57,0,.85-.07.55,0,1.07-.1,1.52-.15Z"/><path class="cls-18" d="M57.47,141.63s-.34.38-.86.9c-.25.26-.55.56-.88.88s-.65.67-1,1c-.15.17-.32.35-.46.53s-.29.35-.41.53a5.13,5.13,0,0,0-.34.52,3.14,3.14,0,0,0-.23.5,1.71,1.71,0,0,0-.14.44c0,.07,0,.14,0,.2s0,.12,0,.17c0,.22,0,.35,0,.35l-.15-.32-.07-.18a3.9,3.9,0,0,1,0-.77,2.51,2.51,0,0,1,.13-.64,2.91,2.91,0,0,1,.28-.66,3.82,3.82,0,0,1,.4-.64c.14-.22.32-.4.48-.61a9.47,9.47,0,0,1,1.11-1,9.71,9.71,0,0,1,1.08-.7A5.28,5.28,0,0,1,57.47,141.63Z"/><path class="cls-19" d="M175.4,144.05c-1,4.93-7.35,8.65-20.83,12.63,1.12,4.31,2.75,9.22,4.19,13.29.44,1.24.86,2.41,1.25,3.45a2.91,2.91,0,0,1-3.72,3.74c-9.12-3.36-16-11.09-19.53-15.93l-5.69,1.29c-29.93,6.64-81.75,12.12-85.49,10.68-1.11-.43-2.34-1.78-3.6-4,98.72-4,102.84-71.92,98.56-100.62,9.8-.83,16.69-.72,18.17.69,1.28,1.22,2.78,4.71,4.35,9.55C169.26,98,176.55,138.29,175.4,144.05Z"/><path class="cls-20" d="M160.52,72.16C120.41,72.27,46.3,88,39.53,99.6c-4.44,7.6-4.24,33.26-3.54,50.68q-1-5.06-1.64-11.14c-2.3-20.78.33-40.27,3.16-44.45,7.07-10.4,70.81-23.34,103-26.09,9.8-.83,16.69-.72,18.17.69A10.09,10.09,0,0,1,160.52,72.16Z"/><path class="cls-21" d="M151.22,89.84a57.25,57.25,0,0,1-6.73,1.49c-12.19,2.34-36.85,6.43-41.38,7.19-5.9,1-7.49-6.47-4.18-8.64,2.8-1.82,33.77-6.66,45.65-8.28,2.21-.3,3.76-.49,4.34-.52C153.68,80.77,154.46,88.31,151.22,89.84Z"/><path class="cls-21" d="M154.87,114.34c-.89.42-7.62,1.7-15.82,3.16-12.62,2.24-28.72,4.92-32.3,5.53-5.9,1-7.49-6.49-4.18-8.65,2.4-1.57,25.7-5.37,39.71-7.44,5.3-.77,9.27-1.3,10.28-1.37C157.32,105.26,158.1,112.81,154.87,114.34Z"/><path class="cls-21" d="M158.85,139.77c-1,.5-19.83,3.67-40.42,7-24.17,4-31.58,4.59-34.76,5.16-5.89,1.08-7.57-6.38-4.28-8.59,2.15-1.45,22.35-4.15,50.1-8.41,14.42-2.21,25.69-3.85,26.95-3.94C161.19,130.67,162.07,138.2,158.85,139.77Z"/><path class="cls-22" d="M144.49,91.33c.19-3.38.2-6.64.09-9.73,2.21-.3,3.76-.49,4.34-.52,4.76-.31,5.54,7.23,2.31,8.76A58.23,58.23,0,0,1,144.49,91.33Z"/><path class="cls-23" d="M154.87,114.34c-.89.42-7.62,1.7-15.82,3.16a78.24,78.24,0,0,0,3.23-10.56c5.31-.77,9.27-1.3,10.29-1.37C157.32,105.26,158.1,112.81,154.87,114.34Z"/><path class="cls-24" d="M158.85,139.77c-1,.5-19.83,3.67-40.42,7A73.15,73.15,0,0,0,129.49,135c14.42-2.21,25.69-3.85,26.94-3.94C161.19,130.67,162.07,138.2,158.85,139.77Z"/><path class="cls-25" d="M175.4,144.05c-1,4.93-7.35,8.65-20.83,12.63,1.12,4.31,2.75,9.22,4.19,13.29a7.86,7.86,0,0,1-2.74,1.12c-3.65.38-8.06-1.54-8.63-4.05s3.65-12.7,3.65-12.7-10.36-1-12.29-7.88,8.06-44.46,11.52-55.24c2.78-8.69,4.7-11.37,12.8-12.39C169.26,98,176.55,138.29,175.4,144.05Z"/><path class="cls-26" d="M58.23,15.66A2.26,2.26,0,1,0,56,13.4,2.26,2.26,0,0,0,58.23,15.66Z"/><path class="cls-27" d="M95.22,57.17a3.84,3.84,0,1,0-3.83-3.84A3.84,3.84,0,0,0,95.22,57.17Z"/><path class="cls-28" d="M163.4,4.77A2.39,2.39,0,1,0,161,2.39,2.38,2.38,0,0,0,163.4,4.77Z"/><path class="cls-29" d="M206.79,23.91a5.12,5.12,0,1,0-5.1-5.12A5.11,5.11,0,0,0,206.79,23.91Z"/><path class="cls-30" d="M201.93,45.86a2.48,2.48,0,1,0-2.47-2.48A2.48,2.48,0,0,0,201.93,45.86Z"/><path class="cls-31" d="M181.11,80.46c-6.89.41-9,2.53-13.73,11.6s-21.74,28-21.74,44.33c5.3,10.48,11.79,16.76,37.82,20.2s62,6.34,72.85,4,30.22-45.92,32.9-59.82A51.25,51.25,0,0,0,287.71,76C279.76,74.94,202.44,79.19,181.11,80.46Z"/><path class="cls-32" d="M149.94,161.87s4.93,4.81,7.53,4.91,16.78-7.14,21-10.93l-3.85-10.41Z"/><path class="cls-33" d="M287.38,86.24c-1.36,6.44-6,18.93-11.79,31.14a177.81,177.81,0,0,1-10.33,19.12c-3.88,6.11-7.74,10.79-11,12.57a6.87,6.87,0,0,1-1.76.67c-11.52,2.5-49.71-.57-77.35-4.23l-.53-.08c-5.87,7.22-16.23,13.09-22.84,16.35a2.26,2.26,0,0,1-3-3c2.83-5.89,5.7-13.08,7-16.49-9.79-2.42-11.15-5.48-11.15-12.35,0-17.33,8.45-43.3,13.44-52.92a46.89,46.89,0,0,1,4.82-7.94c2.54-3.1,5.16-4.1,9.76-4.38,1.45-.09,3.1-.14,4.92-.18,18.82-.36,56.23,1.82,79.55,3.52,9.86.72,17.19,1.35,19.55,1.67C285.08,70.85,290.26,72.58,287.38,86.24Z"/><path class="cls-34" d="M220.41,95.66a16,16,0,0,0-.74,2.65,18.19,18.19,0,0,0,0,7.12,17.31,17.31,0,0,0,1.55,4.46,20,20,0,0,0,3,4.32,26.93,26.93,0,0,0,4.26,3.72c.77.56,1.63,1.08,2.43,1.58l2.63,1.43a44.67,44.67,0,0,0,5.36,2.38c.9.38,1.83.6,2.74.89a24.55,24.55,0,0,0,2.73.65l.67.15.68.08,1.33.17c.88.1,1.74.08,2.59.13s1.66-.06,2.45-.17a17.26,17.26,0,0,0,2.25-.41l1-.27,1-.35a11.67,11.67,0,0,0,1.75-.76l.39-.21.36-.23.69-.43c.43-.29.78-.63,1.12-.9a9.29,9.29,0,0,0,1.34-1.49l.41-.59s-.12.22-.36.62a3.59,3.59,0,0,1-.48.72,9.12,9.12,0,0,1-.76.9,13.77,13.77,0,0,1-1.09,1l-.66.5-.36.26-.39.23a12.33,12.33,0,0,1-1.74.9c-.32.14-.65.29-1,.42l-1.07.33a17.53,17.53,0,0,1-2.32.53,10,10,0,0,1-1.24.15l-1.29.11c-.87,0-1.77,0-2.69,0l-1.38-.14-.7-.07-.7-.13a25.89,25.89,0,0,1-2.82-.62,26.51,26.51,0,0,1-2.84-.87A46.7,46.7,0,0,1,233,122l-2.62-1.45c-.89-.55-1.73-1.07-2.54-1.67a26.19,26.19,0,0,1-4.36-4,19.26,19.26,0,0,1-3-4.62,17,17,0,0,1-1.54-8.88,17.94,17.94,0,0,1,.56-3.13,15,15,0,0,1,.66-1.94C220.3,95.89,220.41,95.66,220.41,95.66Z"/><path class="cls-35" d="M221.69,87.69s-.32.33-.83.93a25.82,25.82,0,0,0-2,2.61c-.37.56-.75,1.19-1.11,1.86s-.7,1.41-1,2.16a24.55,24.55,0,0,0-.83,2.42,18.57,18.57,0,0,0-.52,2.57c-.06.44-.12.87-.14,1.31s0,.88,0,1.31a21.1,21.1,0,0,0,.17,2.54,23.54,23.54,0,0,0,.44,2.36c.08.37.19.73.29,1.08s.18.68.3,1c.23.63.42,1.22.64,1.73s.37,1,.55,1.32c.33.72.51,1.14.51,1.14l-.71-1c-.23-.33-.47-.75-.75-1.24s-.56-1.05-.86-1.68c-.16-.31-.27-.65-.41-1A9.91,9.91,0,0,1,215,108a16.92,16.92,0,0,1-.61-2.43,18,18,0,0,1-.28-2.69c0-.46,0-.92,0-1.39a13.22,13.22,0,0,1,.12-1.4,18.8,18.8,0,0,1,.6-2.72,18,18,0,0,1,1-2.52,19,19,0,0,1,2.53-4,17.9,17.9,0,0,1,2.32-2.39A12.11,12.11,0,0,1,221.69,87.69Z"/><path class="cls-36" d="M220.13,117l1.8,1.44,1.83,1.46,1,.8c.35.27.71.55,1.08.81s.71.55,1.08.8.71.52,1.06.75.69.47,1,.68.63.42.93.59l.79.5.62.37c.35.21.54.34.54.34l-.63-.13-.72-.17-.9-.31a9,9,0,0,1-1-.44,10,10,0,0,1-1.13-.57,19.62,19.62,0,0,1-2.31-1.49c-.38-.27-.73-.58-1.09-.87s-.68-.6-1-.9a20.58,20.58,0,0,1-1.62-1.75A12.76,12.76,0,0,1,220.13,117Z"/><path class="cls-37" d="M237.73,127.4s.56.16,1.53.38,2.4.5,4.09.75a40.48,40.48,0,0,0,5.81.41c.53,0,1.07,0,1.62-.05s1.09-.08,1.64-.15a21.81,21.81,0,0,0,3.28-.63,17.28,17.28,0,0,0,3.11-1.16,16.23,16.23,0,0,0,2.74-1.66c.41-.33.79-.68,1.18-1s.7-.71,1-1.07.6-.74.88-1.09l.75-1.09c.25-.34.41-.72.61-1.05a8.5,8.5,0,0,0,.52-1c.27-.64.58-1.17.74-1.66l.57-1.48s-.13.56-.35,1.56c-.1.5-.33,1.07-.55,1.75a8.83,8.83,0,0,1-.42,1c-.18.36-.32.77-.55,1.15s-.44.78-.67,1.19l-.87,1.21c-.32.39-.67.78-1,1.18s-.79.75-1.21,1.12A15.57,15.57,0,0,1,259.3,128a17.07,17.07,0,0,1-3.3,1.27,22.06,22.06,0,0,1-3.46.62,24.3,24.3,0,0,1-3.39.11,30.36,30.36,0,0,1-3.14-.27c-1-.14-1.92-.31-2.77-.51s-1.62-.4-2.3-.6-1.26-.4-1.73-.58C238.26,127.64,237.73,127.4,237.73,127.4Z"/><path class="cls-38" d="M265.26,136.51c-4.6,7.23-9.14,12.44-12.8,13.24-11.52,2.5-49.71-.57-77.35-4.24l-.53-.07c-5.87,7.21-16.23,13.09-22.84,16.35a2.26,2.26,0,0,1-3-3c2.83-5.9,5.7-13.09,7-16.49-9.79-2.43-11.15-5.48-11.15-12.36,0-17.32,8.45-43.29,13.44-52.91s7.26-11.89,14.58-12.32c1.45-.09,3.1-.15,4.92-.18C170.36,96.84,198.87,142.26,265.26,136.51Z"/><path class="cls-39" d="M287.38,86.24c-2.12,10-12.24,34.76-22.12,50.27-3.88,6.11-7.74,10.78-11,12.56,14.16-18,36.26-72.09,3-76.49-28.1-3.72-77.67-5.82-94.39-3.52,2.54-3.1,5.16-4.1,9.76-4.37,1.45-.09,3.1-.15,4.92-.18,26.78-.52,91.19,4.1,99.1,5.18C285.08,70.85,290.26,72.58,287.38,86.24Z"/><path class="cls-40" d="M287.38,86.24c-1.36,6.44-6,18.93-11.79,31.14-10.2,3.46-22,5.16-29.76,4-17.52-2.72-24.15-33.65-5.63-46.42A43.64,43.64,0,0,1,257.09,68c9.86.72,17.19,1.35,19.55,1.67C285.08,70.85,290.26,72.58,287.38,86.24Z"/><path class="cls-21" d="M214.07,88.17c-2.6.68-23.44-.89-36.31-2.19-5.14-.52-9-1-9.93-1.28-3.27-1-.58-6.85,2.1-6.93,1.37,0,3.71,0,6.65.09,12.36.37,35.22,1.68,39.41,2.61C219.2,81.18,217.72,87.2,214.07,88.17Z"/><path class="cls-21" d="M208.51,109c-2.78.26-11.4-.19-20.47-.86-11.6-.85-23.94-2.06-25.78-2.6-3.26-1-.57-6.85,2.12-6.93,2.87-.08,10.14.16,18.1.55,11.68.57,24.87,1.46,28,2.15S212.27,108.61,208.51,109Z"/><path class="cls-21" d="M220.67,131.59l-.07,0c-3.65,1-60.45-3.85-63.71-4.81s-.57-6.85,2.11-6.93c4.47-.12,26.46,1.06,43.41,2.23,10,.69,18.19,1.39,20.11,1.81C225.71,124.62,224.27,130.56,220.67,131.59Z"/><path class="cls-41" d="M169.94,77.77c1.36,0,3.7,0,6.64.09A52,52,0,0,0,177.76,86c-5.13-.52-9-1-9.93-1.27C164.56,83.74,167.25,77.85,169.94,77.77Z"/><path class="cls-42" d="M164.38,98.56c2.87-.08,10.14.16,18.1.55a60.21,60.21,0,0,0,5.56,9c-11.6-.85-23.94-2.06-25.78-2.6C159,104.52,161.69,98.63,164.38,98.56Z"/><path class="cls-43" d="M220.67,131.59l-.07,0c-3.65,1-60.45-3.85-63.71-4.81s-.57-6.85,2.11-6.93c4.47-.12,26.46,1.06,43.41,2.23A74.38,74.38,0,0,0,220.67,131.59Z"/><path class="cls-44" d="M234.4,73.72a4.82,4.82,0,0,1-1.88.47c-4,.23-10.24-3.38-12.91-11.52-3.11-9.5-.67-22.49,4.54-23.68l.18,0c6.3-1.23,11.44,7.94,13.37,15.67S238,71.9,234.4,73.72Z"/><path class="cls-45" d="M234.4,73.72l-.38.17a5.4,5.4,0,0,1-1.5.3l-.21,0c-4-.9-8.13-5.1-10.11-12.2-2.56-9.17-2.29-18.82,1.54-22.49.19-.17.39-.35.59-.5a5.59,5.59,0,0,1,.59-.08c6-.58,10.91,8.26,12.78,15.74C239.65,62.42,238,71.9,234.4,73.72Z"/><path class="cls-46" d="M234,73.85v0a5.4,5.4,0,0,1-1.5.3l-.21,0c0-.18,0-.29,0-.29a46.48,46.48,0,0,0-8.58-34.4c.19-.17.39-.35.59-.5a5.59,5.59,0,0,1,.59-.08A45.51,45.51,0,0,1,234,73.85Z"/><path class="cls-47" d="M278.4,97.56c-3.57,10-10.5,16.78-16.17,21.09a18.11,18.11,0,0,1-9.82,3.66A33.05,33.05,0,0,1,233,117a20.36,20.36,0,0,1-9.64-14.44,12.17,12.17,0,0,1-.14-2,43.93,43.93,0,0,1,3.67-21.5c3.08-6.78,7.28-11.29,14.59-12.55,4.6-.8,10.44-.31,18,1.71C274.47,72.31,283.66,82.86,278.4,97.56Z"/><path class="cls-48" d="M278.4,97.56c-3.58,10-10.5,16.78-16.17,21.09a18.11,18.11,0,0,1-9.83,3.66A33,33,0,0,1,233,117a20.36,20.36,0,0,1-9.64-14.44c26.42,32.18,57.14-16.46,40.94-19.54-11.49-2.18-21.47-10.1-22.82-16.47,4.6-.8,10.44-.31,18,1.71C274.46,72.31,283.66,82.86,278.4,97.56Z"/><path class="cls-49" d="M223.32,102.59a12.94,12.94,0,0,1-.25-2v0c-.14-.88-.21-1.76-.28-2.64s-.07-1.78-.06-2.66l0-1.33.09-1.33c.08-.88.16-1.77.29-2.65s.29-1.75.46-2.62.38-1.74.61-2.6.49-1.71.81-2.55l.44-1.26.52-1.23c.18-.39.34-.83.54-1.22s.37-.79.59-1.19A25.56,25.56,0,0,1,228.45,75,22.66,22.66,0,0,1,230,72.85c.29-.35.57-.7.89-1l.46-.49.49-.46a12.44,12.44,0,0,1,1-.87c.33-.29.72-.53,1.08-.79a16.8,16.8,0,0,1,2.35-1.29l1.24-.48,1.28-.38,1.29-.29,1.31-.19-1.27.35-1.25.4-1.21.49c-.38.19-.78.37-1.16.58s-.76.42-1.12.66-.73.46-1.06.73-.68.52-1,.82a11,11,0,0,0-.93.88L232,72l-.42.49c-.29.32-.55.66-.81,1a22.23,22.23,0,0,0-1.44,2.14c-.44.74-.86,1.5-1.25,2.26-.2.37-.37.79-.56,1.18s-.34.78-.52,1.19l-.5,1.2L226,82.65c-.31.81-.54,1.65-.8,2.47s-.47,1.68-.67,2.52-.38,1.71-.52,2.56-.28,1.72-.4,2.58l-.15,1.31-.11,1.3c-.07.87-.11,1.75-.14,2.62s0,1.76,0,2.63h0A18,18,0,0,0,223.32,102.59Z"/><path class="cls-50" d="M272.64,82.53s2.87,22.85-16.37,37.4C256.27,119.93,277.62,108.09,272.64,82.53Z"/><path class="cls-51" d="M253.8,105.82c-.84.6-8,.49-14-2.64a26.48,26.48,0,0,1-9.17-7.47,9.16,9.16,0,0,1-1.73-3.7c-.6-3.48,4-15.11,7.06-14.89,4,.28,16.71,6.66,22.44,11.54,1.68,1.43,2.75,2.74,2.84,3.71C261.58,96.69,254.64,105.22,253.8,105.82Z"/><path class="cls-52" d="M235.26,80.41c-1.82,1.22-5.12,9.43-4.17,11.72s3.51-6.39,6.55-6.77,7.69,1.24,8.16-.29S237.26,79.08,235.26,80.41Z"/><path class="cls-53" d="M250.25,86.64c-2.57-.45-1,2.42,1.45,2.85S253.45,87.21,250.25,86.64Z"/><path class="cls-54" d="M253.8,105.82c-.84.6-8,.49-14-2.64a26.48,26.48,0,0,1-9.17-7.47c5.07,2.57,10.07-3.63,17.46-1.87,7.09,1.67,10.63-.8,10.31-5.18,1.68,1.43,2.75,2.73,2.84,3.71C261.58,96.69,254.64,105.22,253.8,105.82Z"/><path class="cls-55" d="M314,92a27,27,0,0,1-22.58,9.73,27.33,27.33,0,0,1-21.68-12.62s6.36-9.57,18.4-10.36a25.42,25.42,0,0,1,6,.32c.66.11,1.29.24,1.91.38C310.15,82.6,313.88,91.71,314,92Z"/><path class="cls-56" d="M309,91l-2.81-1s-4-9.32-18-11.23a24.93,24.93,0,0,1,6,.33c.66.11,1.29.24,1.91.37C306.35,83.17,308.87,90.75,309,91Z"/><path class="cls-57" d="M314,92a27,27,0,0,1-22.58,9.73,27.33,27.33,0,0,1-21.68-12.62S293.38,84.42,314,92Z"/><path class="cls-58" d="M271.7,24a1.63,1.63,0,1,0-1.62-1.62A1.63,1.63,0,0,0,271.7,24Z"/><path class="cls-59" d="M271,22.73a.5.5,0,0,1-.17.7C264,27.33,255.41,38,255.41,38l-.46-.68s8.51-10.92,15.41-14.8A.48.48,0,0,1,271,22.73Z"/><path class="cls-60" d="M254.4,37l-3.25,4s-1.12,1.47-.09,2.55,1.92-.21,2.68-1.06a28,28,0,0,0,2.45-3.86A1.31,1.31,0,0,0,254.4,37Z"/><path class="cls-61" d="M271.1,76.86c-11.25,2.3-21.8-2.09-27-9.71a18.79,18.79,0,0,1-2.86-14.55c3.16-15.47,14.22-26.83,33.66-19.4,6.15,2.35,10.29,5.54,12.82,9.12C297.07,55.48,284.7,74.07,271.1,76.86Z"/><path class="cls-62" d="M271.1,76.86c-11.25,2.3-21.8-2.09-27-9.71,9.42,9.08,25.43,2.59,27.63-8.11,2.45-11.88,7-18.21,16-16.72C297.07,55.48,284.7,74.07,271.1,76.86Z"/><path class="cls-63" d="M241.33,60.68s-.08-.28-.19-.81a18.35,18.35,0,0,1-.35-2.35,19.65,19.65,0,0,1,.08-3.7,34.77,34.77,0,0,1,1-4.7,33.87,33.87,0,0,1,1.94-5.35,26.87,26.87,0,0,1,3.29-5.46,24.59,24.59,0,0,1,2.29-2.51c.4-.41.87-.76,1.3-1.14s.93-.72,1.43-1A20,20,0,0,1,255.2,32a21,21,0,0,1,3.4-1.09,23,23,0,0,1,7-.42,31.4,31.4,0,0,1,6.68,1.36c1.06.32,2.06.7,3.06,1.09s1.93.82,2.82,1.27a30.71,30.71,0,0,1,4.84,3,21.51,21.51,0,0,1,3.49,3.31,19.13,19.13,0,0,1,2.12,3,17,17,0,0,1,1,2.14c.19.51.28.8.28.8s-.1-.27-.34-.77a18.26,18.26,0,0,0-1.13-2.06,17.71,17.71,0,0,0-2.24-2.87,23.16,23.16,0,0,0-3.55-3.07,32.26,32.26,0,0,0-4.82-2.76,43.2,43.2,0,0,0-5.81-2.17,32,32,0,0,0-6.48-1.23,21.77,21.77,0,0,0-6.73.43,18.84,18.84,0,0,0-3.22,1,19,19,0,0,0-3,1.57,21.22,21.22,0,0,0-4.84,4.39,31.54,31.54,0,0,0-5.39,10.38c-.14.41-.25.82-.36,1.22s-.22.79-.32,1.17c-.2.78-.37,1.49-.49,2.19a18.93,18.93,0,0,0-.26,3.63,18.24,18.24,0,0,0,.19,2.35Z"/><path class="cls-64" d="M251.28,59a32.32,32.32,0,0,1,1.11-5.38c.23-.79.49-1.65.82-2.53s.69-1.82,1.12-2.77.89-1.91,1.43-2.86,1.13-1.89,1.77-2.8c.32-.46.67-.89,1-1.33s.71-.85,1.07-1.26A22,22,0,0,1,262,37.9a14.71,14.71,0,0,1,1.23-.93l.61-.42.63-.37.61-.36.61-.31a10.23,10.23,0,0,1,1.19-.52,15.81,15.81,0,0,1,2.15-.71c.65-.16,1.23-.26,1.7-.34l1.5-.14-1.45.37q-.69.21-1.62.54a20.52,20.52,0,0,0-2,.89,8.52,8.52,0,0,0-1.1.6l-.57.33-.56.39c-.19.12-.38.26-.57.39l-.57.44-.57.45-.56.49a26.43,26.43,0,0,0-2.17,2.19c-.35.39-.68.8-1,1.21s-.65.85-1,1.29c-.62.87-1.21,1.78-1.74,2.69s-1,1.83-1.48,2.74-.87,1.79-1.23,2.64-.71,1.68-1,2.44C251.85,56.92,251.28,59,251.28,59Z"/><path class="cls-65" d="M250.53,66.77s.25.54.53,1.32c.15.39.3.84.47,1.32s.35,1,.54,1.47.39,1,.58,1.43c.11.22.22.44.31.64s.22.38.31.56l.3.46a2.71,2.71,0,0,0,.26.34l.24.32-.38-.13a2,2,0,0,1-.42-.21,5.21,5.21,0,0,1-.5-.35c-.15-.15-.34-.31-.51-.5a5.91,5.91,0,0,1-.91-1.36,5.58,5.58,0,0,1-.35-.79,7.86,7.86,0,0,1-.27-.82c-.08-.27-.13-.55-.18-.81a7.33,7.33,0,0,1-.11-.76c0-.25,0-.48,0-.7A6.1,6.1,0,0,1,250.53,66.77Z"/><path class="cls-66" d="M284.84,53.86c-3.15-.67-6.34,6.61-2.15,8.28S289.39,54.82,284.84,53.86Z"/><path class="cls-67" d="M301.66,36.64A1.63,1.63,0,1,0,300,35,1.63,1.63,0,0,0,301.66,36.64Z"/><path class="cls-68" d="M301,35.46a.49.49,0,0,1-.1.71c-6.36,4.71-13.55,16.38-13.55,16.38l-.55-.62S294,40.06,300.35,35.36A.5.5,0,0,1,301,35.46Z"/><path class="cls-69" d="M286.25,51.67,283.51,56s-.94,1.6.21,2.54,1.88-.43,2.53-1.37a27.45,27.45,0,0,0,2-4.13A1.3,1.3,0,0,0,286.25,51.67Z"/><path class="cls-70" d="M267.54,49.12c-7.85-2.72-12.69,12.92-5.17,15.42S275.52,51.88,267.54,49.12Z"/><path class="cls-71" d="M264.89,50c-1.78.37-3.85,2.84-4.61,5.87-.68,2.73-.19,6,1.06,6s.11-4.61,1.58-7c1.59-2.57,2.91-2.53,3.59-3.67C266.9,50.51,266.32,49.68,264.89,50Z"/><path class="cls-72" d="M268.29,51.31c-.8.34-.64,3.37.79,3.11S269.73,50.71,268.29,51.31Z"/><path class="cls-73" d="M249.47,43c-7.18-2.48-11.62,11.84-4.73,14.12S256.79,45.5,249.47,43Z"/><path class="cls-74" d="M247.05,43.77c-1.63.34-3.53,2.6-4.22,5.38-.63,2.5-.17,5.44,1,5.47s.11-4.22,1.46-6.42c1.45-2.36,2.66-2.32,3.28-3.36C248.89,44.24,248.36,43.49,247.05,43.77Z"/><path class="cls-75" d="M250.16,45c-.73.31-.59,3.08.73,2.85S251.47,44.43,250.16,45Z"/><path class="cls-21" d="M249.34,60.75a33.54,33.54,0,0,0,4.78,1.63.84.84,0,0,1,.48,1.31,3.38,3.38,0,0,1-4,1.28,3.25,3.25,0,0,1-2.39-3.47A.84.84,0,0,1,249.34,60.75Z"/><path class="cls-76" d="M85.23,113.46a9.21,9.21,0,0,1-1.91,14.16l-.58.31a10.15,10.15,0,0,1-3.21,1s-14-5.75-14.18-6-5-12.61-5-12.61-.68-8.21,6.58-9.91,11.9,6.1,11.9,6.1l1.63,1.78Z"/><path class="cls-77" d="M82.74,127.93a10.15,10.15,0,0,1-3.21,1s-14-5.75-14.18-6-5-12.61-5-12.61-.68-8.21,6.58-9.91,11.9,6.1,11.9,6.1l1.63,1.78q-3.69,4.48-7.84,8.62c1.42,0,2.83,0,4.24-.09a2.63,2.63,0,0,1,1.69.36c1,.72.52,2.19.37,3.38a7.66,7.66,0,0,0,2.29,6A15.86,15.86,0,0,0,82.74,127.93Z"/><path class="cls-78" d="M69.82,120.73l1.89.53.91.23,1,.22c.35.08.72.13,1.1.21a6.36,6.36,0,0,1,1.21.37,2.27,2.27,0,0,1,.58.41,2,2,0,0,1,.41.58,1.35,1.35,0,0,1,.14.3l0,0h0s0-.08,0,0v0l0,.06.06.13a2.55,2.55,0,0,0,.27.35A8.13,8.13,0,0,0,79,125.29c.5.29.94.52,1.24.69l.48.25a9.06,9.06,0,0,1-1.92-.51,7.58,7.58,0,0,1-.9-.4,4.68,4.68,0,0,1-.94-.63,2.59,2.59,0,0,1-.45-.52l-.07-.13,0-.06v0l0,0v0a1.47,1.47,0,0,0-.1-.22,1.4,1.4,0,0,0-.65-.62,5.66,5.66,0,0,0-1-.33c-.37-.08-.75-.19-1.11-.29a10.16,10.16,0,0,1-1-.34c-.32-.12-.62-.25-.89-.37A11.9,11.9,0,0,1,69.82,120.73Z"/><path class="cls-78" d="M68.81,122.84a9.26,9.26,0,0,1,.42-1.61,12.56,12.56,0,0,1,.65-1.57,13.92,13.92,0,0,1,1-1.7,14.56,14.56,0,0,1,1.23-1.54,7.66,7.66,0,0,1,.65-.63,6.72,6.72,0,0,1,.63-.51l.57-.38c.17-.11.34-.18.46-.25l.42-.19-.32.32c-.1.11-.23.22-.37.36s-.28.32-.45.49-.32.39-.5.59-.35.45-.55.67-.35.5-.55.75-.36.52-.54.78-.36.53-.52.79-.35.53-.5.79l-.86,1.42C69.15,122.28,68.81,122.84,68.81,122.84Z"/><path class="cls-78" d="M69.32,118a6.22,6.22,0,0,1,.22-1.16,9.35,9.35,0,0,1,1-2.37,7.91,7.91,0,0,1,.82-1.13c.15-.17.31-.32.46-.46s.32-.26.45-.36a4.45,4.45,0,0,1,.42-.26,1.33,1.33,0,0,1,.35-.16l.31-.1-.22.24a1.68,1.68,0,0,0-.24.27c-.09.11-.2.22-.3.35s-.43.58-.65.93-.47.73-.7,1.11c-.46.76-.93,1.54-1.3,2.13S69.32,118,69.32,118Z"/><path class="cls-78" d="M64.77,111s.35.69.77,1.76c.22.53.46,1.16.69,1.84s.47,1.4.69,2.13.43,1.46.61,2.16c.09.35.17.68.24,1a1.89,1.89,0,0,1,0,.23v0h0v0h0v.08a.37.37,0,0,1,0,.17,1.28,1.28,0,0,1-.23.51,4.89,4.89,0,0,1-1,1c-.28.2-.44.29-.44.29l.33-.41a6.4,6.4,0,0,0,.73-1.12,1.13,1.13,0,0,0,.1-.32s0,0,0-.06v-.09h0c0-.05,0,.06,0,0h0l-.09-.23-.35-1c-.24-.67-.46-1.4-.7-2.13s-.42-1.46-.59-2.16-.33-1.34-.44-1.9A18.7,18.7,0,0,1,64.77,111Z"/><path class="cls-79" d="M71.77,141.71a14.51,14.51,0,0,1-9.48,6.58,20.36,20.36,0,0,1-6.64.36s-14.26-16.16-17-20.4-3.71-21.24,5.66-23.1,13.5,1.69,13.5,1.69c1.54.16,4.46,7.18,6.43,12.39,1.18,3.1,2,5.56,2,5.56Z"/><path class="cls-80" d="M59.25,143.85c1,1.45,2.12,2.92,3,4.45a20.36,20.36,0,0,1-6.64.36s-14.26-16.17-17-20.4-3.71-21.24,5.66-23.1,13.5,1.69,13.5,1.69c1.54.16,4.46,7.18,6.43,12.38a42.39,42.39,0,0,0-17.67,6.46.29.29,0,0,0,.17.53,23.39,23.39,0,0,1,6,.57,1.39,1.39,0,0,1,.57,2.41l-1,.84a1.39,1.39,0,0,0-.34,1.68A96.15,96.15,0,0,0,59.25,143.85Z"/><path class="cls-78" d="M47.54,120a13.78,13.78,0,0,1,.71,1.6c.19.49.39,1.06.58,1.68.09.32.19.64.27,1s.15.68.21,1a4.69,4.69,0,0,1,.06.54v.33h0c0,.09,0,.16,0,.27a3.92,3.92,0,0,1-.16.36L49,127a4.67,4.67,0,0,1-.4.38,4.33,4.33,0,0,1-.84.53,6.64,6.64,0,0,1-.78.36,8.47,8.47,0,0,1-1.68.48l1.46-.9a10.71,10.71,0,0,0,1.36-1,2.07,2.07,0,0,0,.28-.32l.11-.16a.3.3,0,0,1,.06-.11,1.2,1.2,0,0,0,0-.23v0h0c0,.13,0,0,0,.06v-.19c0-.16,0-.32-.07-.48-.1-.66-.25-1.33-.37-2s-.24-1.23-.33-1.73C47.62,120.67,47.54,120,47.54,120Z"/><path class="cls-78" d="M42.65,122.93s.23.82.59,2c.1.29.21.61.32,1s.24.68.39,1,.31.7.49,1a5.25,5.25,0,0,0,.64,1,2.4,2.4,0,0,0,.38.4,1.66,1.66,0,0,0,.42.29l.23.12.29.11.55.21a14.26,14.26,0,0,1,2,.9,2.93,2.93,0,0,1,.71.56,1.72,1.72,0,0,1,.35.62,1.36,1.36,0,0,1,.07.44.85.85,0,0,0,0,.15l0-.14a1.77,1.77,0,0,0-.18-.38,1.73,1.73,0,0,0-.42-.45,3.6,3.6,0,0,0-.71-.37c-.56-.21-1.26-.4-2-.63l-.57-.18-.3-.09c-.1,0-.21-.1-.32-.14a2.1,2.1,0,0,1-.6-.4,3.24,3.24,0,0,1-.49-.49,7.26,7.26,0,0,1-1.17-2.3c-.13-.38-.22-.76-.31-1.12s-.13-.7-.18-1A12.25,12.25,0,0,1,42.65,122.93Z"/><path class="cls-78" d="M50.5,135.2l.06.15a4.23,4.23,0,0,0,.19.4.47.47,0,0,0,.18.19,3.54,3.54,0,0,1,.34.17,3.06,3.06,0,0,1,.69.66c.21.27.42.58.62.89s.43.65.65,1c.44.69.89,1.45,1.34,2.21s.87,1.52,1.26,2.25.74,1.41,1,2c.58,1.18.9,2,.9,2s-.57-.68-1.32-1.78c-.38-.54-.8-1.18-1.24-1.87s-.9-1.45-1.34-2.21S53,139.76,52.6,139c-.2-.36-.38-.72-.55-1.05s-.32-.65-.49-.93a2.91,2.91,0,0,0-.49-.68,3.45,3.45,0,0,0-.28-.23.81.81,0,0,1-.2-.32,1.9,1.9,0,0,1-.07-.45Z"/><path class="cls-78" d="M52.78,123.86a11.62,11.62,0,0,1,1.67-.69,17.39,17.39,0,0,1,1.79-.49,19.56,19.56,0,0,1,2.1-.35c.37,0,.73-.07,1.08-.08s.71,0,1,0,.67,0,1,.05.6.06.87.11a9.54,9.54,0,0,1,1.29.29l.47.16H63l-.73,0c-.26,0-.55,0-.85,0l-1,.06c-.34,0-.67.06-1,.09s-.7.07-1,.1-.71.08-1,.12-.69.07-1,.12l-1.81.24Z"/><path class="cls-78" d="M58.6,124.87a3.77,3.77,0,0,1,.76-.51,6.62,6.62,0,0,1,1.85-.7,5.31,5.31,0,0,1,2-.09,3.09,3.09,0,0,1,.65.18,1.59,1.59,0,0,1,.23.11l-.25,0c-.15,0-.37.09-.62.13l-1.84.43a18.64,18.64,0,0,1-1.87.33A5.74,5.74,0,0,1,58.6,124.87Z"/><path class="cls-81" d="M131.44,49.64c-1.48.08-6.51.67-6.51.67l0,.47-.22,6.51-3.93.81-4.71,8.75-5-5,.79-1.1,4.17-5.8s-1.7-8.31-2.22-10.47,3,.6,3.77,4.31c0,0,14.36-1.41,15.1-.74S132.92,49.57,131.44,49.64Z"/><path class="cls-82" d="M124.91,50.78l-.22,6.51-3.93.81-4.71,8.75-5-5,.79-1.1a10.26,10.26,0,0,1,4.6,1s4.07-6.06,4.71-8C121.66,52.16,122.45,51.12,124.91,50.78Z"/><path class="cls-83" d="M124.21,55.44c-2.47.16-4.18,2.57-.23,2.45S128.47,55.14,124.21,55.44Z"/><path class="cls-84" d="M124.42,53.09c-2.72.19-4.6,2.83-.25,2.7S129.1,52.78,124.42,53.09Z"/><path class="cls-85" d="M124.57,50.31c-2.72.18-4.61,2.83-.25,2.7S129.25,50,124.57,50.31Z"/><path class="cls-86" d="M117.81,67.14l-.93,1.73c-2.87,5.35-11.59,21.18-13.89,21C100.22,89.65,72.35,80,72.35,80L65.59,66.21l-2.78-5.68c2.17-.18,6.69-.91,10.31,0S97.79,72.35,97.79,72.35s.22-1.22.88-1.1A3,3,0,0,1,100,72L110.73,60.6S115.93,63.37,117.81,67.14Z"/><path class="cls-87" d="M62.81,60.53c1.56-.19,3.12-.41,4.69-.51a21.48,21.48,0,0,1,4.74.16l.58.11a5.66,5.66,0,0,1,.59.15c.37.11.75.24,1.12.39.75.27,1.47.59,2.2.89,1.45.63,2.88,1.29,4.3,2q4.26,2,8.48,4.14c2.8,1.43,5.61,2.87,8.39,4.32l-.34.17a2.71,2.71,0,0,1,.29-.81,1.26,1.26,0,0,1,.33-.37.71.71,0,0,1,.25-.11.75.75,0,0,1,.3,0,1.69,1.69,0,0,1,.42.13c.13.06.25.13.37.2a3.57,3.57,0,0,1,.65.51h-.32l5.42-5.65L108,63.4l2.74-2.8-2.62,2.91-2.64,2.89-5.3,5.77-.15.17-.18-.16a3.21,3.21,0,0,0-.58-.45L99,71.57a1.15,1.15,0,0,0-.33-.1.21.21,0,0,0-.08,0,.19.19,0,0,0-.1,0,.54.54,0,0,0-.18.21,2.1,2.1,0,0,0-.23.65L98,72.7l-.29-.15q-4.2-2.14-8.42-4.25t-8.45-4.19c-1.41-.69-2.84-1.36-4.26-2-.72-.31-1.43-.64-2.15-.93-.35-.15-.72-.28-1.09-.4a3.56,3.56,0,0,0-.56-.15c-.19,0-.37-.09-.57-.12a22.68,22.68,0,0,0-4.66-.29C65.94,60.25,64.38,60.42,62.81,60.53Z"/><path class="cls-88" d="M116.88,68.87c-2.87,5.35-11.59,21.18-13.89,21C100.22,89.65,72.35,80,72.35,80L65.59,66.2a18.18,18.18,0,0,1,3.32,1.28c3.61,1.58,27.09,14.72,27.88,14s.91-8.27,1.81-8.27,3.05,8.49,3.05,8.49,5-11.55,5.64-10.87-.23,10.19-.23,10.19Z"/><g class="cls-89"><path class="cls-90" d="M99,77c-.1-.72-.23-1.31-.31-1.72s-.14-.65-.14-.65,0,.24,0,.67,0,1,.09,1.74.07,1.56.1,2.45c0,.45,0,.91,0,1.36a3.08,3.08,0,0,1-.08.5s0-.06-.06-.09A3,3,0,0,1,98.14,80,12.48,12.48,0,0,1,98,78.64c0-.88,0-1.72,0-2.44s.06-1.32.09-1.74.05-.66.05-.66-.07.23-.16.65-.21,1-.3,1.72a21.51,21.51,0,0,0-.21,2.49,8.7,8.7,0,0,0,.08,1.42,3.43,3.43,0,0,0,.48,1.48c.05.06.06.1.14.19a.83.83,0,0,0,.18.15.48.48,0,0,0,.44,0A.52.52,0,0,0,99,81.8a.7.7,0,0,0,.08-.14,2.57,2.57,0,0,0,.16-.8,11.1,11.1,0,0,0,0-1.42C99.17,78.53,99.05,77.69,99,77ZM98.7,81.4h0S98.71,81.41,98.7,81.4Z"/><path class="cls-91" d="M100.56,77.12A21.39,21.39,0,0,0,99.88,75a9.52,9.52,0,0,0-.42-1s0,.42.09,1a18.34,18.34,0,0,0,.45,2.2,21.39,21.39,0,0,0,.68,2.15,8.65,8.65,0,0,0,.42,1s0-.41-.09-1A20.55,20.55,0,0,0,100.56,77.12Z"/><path class="cls-92" d="M109.32,67.16c-.16.48-.41,1.16-.67,2s-.59,1.78-.9,2.83-.64,2.14-1,3.26-.63,2.23-.9,3.28-.52,2-.73,2.88-.36,1.55-.48,2c-.06.25-.1.44-.13.57a1.35,1.35,0,0,1,0,.2s.11-.26.29-.75.42-1.15.68-2,.59-1.79.91-2.83.64-2.15,1-3.27.63-2.23.9-3.28.51-2,.72-2.88.36-1.56.47-2l.17-.78S109.49,66.68,109.32,67.16Z"/><path class="cls-93" d="M106,75.34c.17-.51.28-.93.38-1.23a4.63,4.63,0,0,0,.12-.47s-.08.16-.23.43-.35.66-.57,1.13c-.46,1-1,2.24-1.55,3.54s-1,2.62-1.33,3.63c-.17.51-.29.93-.38,1.23s-.13.47-.13.47l.24-.43c.13-.28.34-.66.57-1.14.46-.94,1-2.23,1.55-3.53S105.69,76.35,106,75.34Z"/><path class="cls-94" d="M93.87,82c-1.09-.7-2.34-1.52-3.71-2.37l-4.29-2.66-4.33-2.59c-1.38-.83-2.69-1.57-3.8-2.21S75.68,71,75,70.6L74,70l1,.67c.63.41,1.52,1,2.6,1.71s2.35,1.52,3.72,2.36l4.28,2.66c1.48.88,2.94,1.77,4.33,2.59s2.69,1.57,3.8,2.22,2.06,1.16,2.71,1.53l1,.56-1-.66C95.84,83.26,95,82.65,93.87,82Z"/><path class="cls-95" d="M93.59,84.27c-.58-.44-1.25-1-2-1.48s-1.53-1.09-2.32-1.64-1.6-1.09-2.36-1.59l-2.09-1.33c-.62-.38-1.15-.68-1.51-.9L82.74,77l.52.42c.33.27.8.65,1.38,1.08s1.25,1,2,1.48,1.52,1.09,2.32,1.64,1.59,1.09,2.35,1.59,1.48.94,2.1,1.33,1.14.68,1.5.9l.58.34L95,85.35C94.63,85.09,94.17,84.7,93.59,84.27Z"/></g><path class="cls-96" d="M2.73,50.53c1.89,3,7.07.88,7,4.45S16,66.34,27.55,63.82a20.79,20.79,0,0,0,14.94-12.7s18.07-2.27,14.82-12.44a9.36,9.36,0,0,0-2.72-4.35,8.25,8.25,0,0,0-9.2-.81s-3.25-3.82-6.76-.89c0,0-14.85-12.41-27-6.66S4.07,42.45,5.92,44.69c0,0-4.1,2.32-3.57,4.94A2.67,2.67,0,0,0,2.73,50.53Z"/><path class="cls-97" d="M2.73,50.54c1.89,3,7.07.87,7,4.44S16,66.34,27.55,63.82a20.79,20.79,0,0,0,14.94-12.7s18.07-2.27,14.82-12.44a9.28,9.28,0,0,0-2.72-4.35,10,10,0,0,1-4.29,6.84A12.38,12.38,0,0,1,41,42.89a1.84,1.84,0,0,0-1.58.15,1.69,1.69,0,0,0-.39.75,16.69,16.69,0,0,1-1.8,4.46,11.83,11.83,0,0,1-4.72,3.58C28.25,54,23.13,55.5,18.7,53.6c-3.06-1.31-5.43-4.16-8.69-4.86-2.16-.48-4.4.06-6.55.6-.37.09-.74.18-1.11.3A2.85,2.85,0,0,0,2.73,50.54Z"/><path class="cls-98" d="M49.16,40.11A2,2,0,0,0,48,39.37a1.46,1.46,0,0,0-.36,0,2.29,2.29,0,0,0-.36.07,2.52,2.52,0,0,0-.33.15,3.21,3.21,0,0,0-.3.21l.22,0a3.28,3.28,0,0,0-.66-.87,2.44,2.44,0,0,0-.43-.35,2.16,2.16,0,0,0-.5-.26,2.64,2.64,0,0,0-.55-.15h-.29a2.81,2.81,0,0,0-.29,0,3.37,3.37,0,0,0-.55.12,1.57,1.57,0,0,0-.26.1l-.26.11.38.14a9.63,9.63,0,0,0-.49-1c-.19-.33-.38-.65-.59-1a11.18,11.18,0,0,0-.68-.9,10,10,0,0,0-1.65-1.53,7.6,7.6,0,0,0-2-1A7.38,7.38,0,0,0,36.93,33l-.57-.07H35.25l-.57.06a9.71,9.71,0,0,0-1.1.2,9.44,9.44,0,0,0-1.06.36,4,4,0,0,0-.51.24,3.8,3.8,0,0,0-.49.26,7.18,7.18,0,0,0-.91.65,6.34,6.34,0,0,0-1.44,1.66,7.1,7.1,0,0,1,1.58-1.47,7.24,7.24,0,0,1,.93-.54,4.23,4.23,0,0,1,.48-.23l.5-.2c.33-.12.68-.19,1-.28a7.53,7.53,0,0,1,1-.13l.52,0h.93l.13,0,.52.07a9.37,9.37,0,0,1,1,.26,7.35,7.35,0,0,1,.95.41,5.75,5.75,0,0,1,.89.55,7.49,7.49,0,0,1,.82.67,8.62,8.62,0,0,1,.73.75c.23.28.45.55.66.84a10.44,10.44,0,0,1,.58.89,8.57,8.57,0,0,1,.5.94l.11.29.26-.13.22-.11a2,2,0,0,1,.21-.1,2.5,2.5,0,0,1,.45-.12,1,1,0,0,1,.24,0h.23a3.73,3.73,0,0,1,.46.09,1.52,1.52,0,0,1,.43.2,2.07,2.07,0,0,1,.4.28,3.26,3.26,0,0,1,.65.74l.1.15.12-.11c.09-.07.16-.14.25-.2a.92.92,0,0,1,.27-.16,1,1,0,0,1,.3-.09,1.13,1.13,0,0,1,.32,0,1.78,1.78,0,0,1,.62.19A1.94,1.94,0,0,1,49.16,40.11Z"/><path class="cls-99" d="M38.08,52.19a4.59,4.59,0,0,1-.56,1.54,1.87,1.87,0,0,1-1.19.9,2.23,2.23,0,0,1-.39,0,2.33,2.33,0,0,1-.36,0,2.47,2.47,0,0,1-.36-.11,2.21,2.21,0,0,1-.35-.16,3.79,3.79,0,0,1-1.14-1l-.34-.45-.16.56a5.75,5.75,0,0,1-.3.85,7.84,7.84,0,0,1-.41.82,8.49,8.49,0,0,1-.5.77,6.53,6.53,0,0,1-.58.7l-.32.33-.34.3a6.26,6.26,0,0,1-.74.53,4.78,4.78,0,0,1-.81.42l-.42.19-.43.13-.21.07-.1,0-.11,0-.47.1c-.31.07-.59.07-.9.12a6.92,6.92,0,0,1-.91,0,4.67,4.67,0,0,1-.91-.15,5.6,5.6,0,0,1-.87-.3,6.46,6.46,0,0,1-.83-.42,6.18,6.18,0,0,1-1.44-1.22,5.32,5.32,0,0,0,1.31,1.41,5.76,5.76,0,0,0,.82.53,6.57,6.57,0,0,0,.9.38,6.35,6.35,0,0,0,1,.22,8.28,8.28,0,0,0,1,.09,7.77,7.77,0,0,0,1-.08l.47-.07.12,0,.13,0,.24-.07.47-.13.46-.19a5.71,5.71,0,0,0,.89-.45,6.88,6.88,0,0,0,.81-.57l.39-.33.34-.36a7.82,7.82,0,0,0,.63-.77c.19-.27.36-.56.52-.84a9.23,9.23,0,0,0,.42-.9,7,7,0,0,0,.3-.95l-.5.1a4.22,4.22,0,0,0,.64.63,4.41,4.41,0,0,0,.74.47,3.07,3.07,0,0,0,.42.17,2.15,2.15,0,0,0,.44.09A3.46,3.46,0,0,0,36,55a2.26,2.26,0,0,0,.43-.07,1.44,1.44,0,0,0,.42-.18,1.22,1.22,0,0,0,.36-.27,1.81,1.81,0,0,0,.29-.33,3.72,3.72,0,0,0,.22-.38A4,4,0,0,0,38.08,52.19Z"/><path class="cls-100" d="M25.58,52.14s-.23.16-.64.41a9.72,9.72,0,0,1-1.79.86,8.52,8.52,0,0,1-1.26.35,6,6,0,0,1-1.42.11A5.21,5.21,0,0,1,19,53.6a6.22,6.22,0,0,1-.71-.29,7.58,7.58,0,0,1-.68-.4L17,52.43c-.19-.16-.4-.37-.59-.55s-.37-.38-.55-.57a5.6,5.6,0,0,1-.48-.59l-.23-.3-.19-.31a4.76,4.76,0,0,1-.35-.61,6.75,6.75,0,0,1-.46-1.21,5.94,5.94,0,0,1-.17-1.09,4.46,4.46,0,0,1,0-.86,4.06,4.06,0,0,1,.17-.75s0,.07-.09.18a2.6,2.6,0,0,0-.2.54,5.6,5.6,0,0,0-.16.88c0,.17,0,.36,0,.55s0,.41.06.62a5.68,5.68,0,0,0,.38,1.34,5.41,5.41,0,0,0,.33.69,3.94,3.94,0,0,0,.42.67,5.11,5.11,0,0,0,.5.65,5.64,5.64,0,0,0,.55.63l.61.58.69.53c.24.16.5.29.76.44a7.85,7.85,0,0,0,.8.32,5.76,5.76,0,0,0,1.67.24A6.36,6.36,0,0,0,22,54.24a8.07,8.07,0,0,0,1.29-.48A9.4,9.4,0,0,0,25,52.66c.19-.15.33-.29.42-.37Z"/><path class="cls-101" d="M18.65,37.46a3.09,3.09,0,0,0-1.17-.35,4,4,0,0,0-.61,0,2.87,2.87,0,0,0-.68.12,3.21,3.21,0,0,0-.69.3,1.72,1.72,0,0,0-.32.23,1.75,1.75,0,0,0-.29.26l-.13.14,0,0,0,.06,0,.07a2.2,2.2,0,0,0-.48,1.05,2,2,0,0,0,0,.73,2,2,0,0,0,.22.6,2.65,2.65,0,0,0,.57.71,3.28,3.28,0,0,0,.27.19s-.07-.1-.17-.28a3.19,3.19,0,0,1-.32-.77,2.09,2.09,0,0,1-.08-.51,2.06,2.06,0,0,1,.06-.55A2.45,2.45,0,0,1,15,39c0-.08.14-.18.2-.27l.05-.08s0,0,0,0l0,0,.11-.11a1.58,1.58,0,0,1,.23-.22,1.2,1.2,0,0,1,.26-.18,2.39,2.39,0,0,1,.54-.3,3.13,3.13,0,0,1,.57-.18,4,4,0,0,1,.53-.1A6.6,6.6,0,0,1,18.65,37.46Z"/><path class="cls-102" d="M57.31,38.68a9.7,9.7,0,0,0-1.64-3.39,7.09,7.09,0,0,0-1.33-1.35,6.57,6.57,0,0,0-.79-.56c-.28-.15-.55-.32-.85-.45a8.51,8.51,0,0,0-3.76-.73c-.32,0-.65,0-1,.09a7.6,7.6,0,0,0-.95.19,7.74,7.74,0,0,0-.93.3l-.46.2-.44.24.48.07a7.07,7.07,0,0,0-.73-.72,6.68,6.68,0,0,0-.8-.6,7,7,0,0,0-.9-.47,4.09,4.09,0,0,0-.49-.18,4.6,4.6,0,0,0-.5-.13c-.17,0-.35-.06-.52-.07H41.2a4.52,4.52,0,0,0-.53.06,1.81,1.81,0,0,0-.51.12,4.2,4.2,0,0,0-.5.17l-.47.23a3.18,3.18,0,0,0-.43.28l-.42.3h.6a32.74,32.74,0,0,0-2.63-2c-.9-.62-1.82-1.21-2.77-1.76a38.34,38.34,0,0,0-5.91-2.86A27.61,27.61,0,0,0,21.23,24a19.38,19.38,0,0,0-3.32-.13c-.56,0-1.11.08-1.67.13s-1.11.16-1.65.32a15.61,15.61,0,0,0-3.16,1.11c-.51.27-1,.47-1.46.77l-.72.43-.69.48A15.07,15.07,0,0,0,6,29.36a11.23,11.23,0,0,0-2.76,9.38,14.27,14.27,0,0,0,.85,3.2,11.07,11.07,0,0,0,1.63,2.9l.06-.32a11.21,11.21,0,0,0-1.51,1.13,8.39,8.39,0,0,0-.68.65A5.09,5.09,0,0,0,3,47a3.42,3.42,0,0,0-.26.4,3.36,3.36,0,0,0-.22.42,2.45,2.45,0,0,0-.17.45,3.41,3.41,0,0,0-.1.46c0,.16,0,.32,0,.47s0,.32.07.47a2.92,2.92,0,0,0,.39.84,2.89,2.89,0,0,1-.33-.86c0-.15,0-.3,0-.45a3.42,3.42,0,0,1,0-.45c0-.15.09-.29.12-.44a3,3,0,0,1,.19-.41,1.9,1.9,0,0,1,.23-.39,3.47,3.47,0,0,1,.26-.37,6.56,6.56,0,0,1,.62-.67,7.87,7.87,0,0,1,.68-.6,12.41,12.41,0,0,1,1.51-1l.21-.12-.15-.2a11,11,0,0,1-1.41-2.83A14.75,14.75,0,0,1,4,38.64a11,11,0,0,1,1-6.09A12.25,12.25,0,0,1,9.14,28l.65-.43.68-.39c.43-.26,1-.5,1.41-.72s.95-.43,1.45-.57l.74-.25.76-.19c.5-.14,1-.18,1.54-.28s1-.13,1.56-.13a19.43,19.43,0,0,1,3.14.15,27.91,27.91,0,0,1,3.11.59c1,.28,2,.58,3,1A41.15,41.15,0,0,1,33,29.45q1.4.8,2.73,1.68c.89.59,1.77,1.22,2.59,1.87l.32.23.31-.23.35-.26a2.05,2.05,0,0,1,.36-.24l.38-.2a1.85,1.85,0,0,1,.39-.15,1.56,1.56,0,0,1,.41-.11c.14,0,.28-.06.42-.07h.42l.43.05c.14,0,.28.07.42.1a2.21,2.21,0,0,1,.41.14,4.46,4.46,0,0,1,.79.39,5.21,5.21,0,0,1,.74.52,5.31,5.31,0,0,1,.65.59l.21.23.27-.15.37-.23.4-.19a8.39,8.39,0,0,1,.84-.3,6.63,6.63,0,0,1,.88-.21c.3-.06.6-.08.89-.12s.61,0,.91,0a7.14,7.14,0,0,1,.91.08,7,7,0,0,1,.89.18,5.39,5.39,0,0,1,.86.28c.29.11.56.25.83.38a7.21,7.21,0,0,1,.77.5,5.82,5.82,0,0,1,.72.57,6.75,6.75,0,0,1,.64.67A10.52,10.52,0,0,1,57.31,38.68Z"/><path class="cls-103" d="M5,81.25a4.2,4.2,0,0,0-5-.36A4.89,4.89,0,0,0,5,81.25Z"/><path class="cls-104" d="M5,85.94a4.18,4.18,0,0,0-5,.49A4.88,4.88,0,0,0,5,85.94Z"/><path class="cls-105" d="M6,90.57a4.19,4.19,0,0,0-4.69,1.76A4.88,4.88,0,0,0,6,90.57Z"/><path class="cls-106" d="M7.88,95.94a4.2,4.2,0,0,0-4.3,2.58A4.89,4.89,0,0,0,7.88,95.94Z"/><path class="cls-107" d="M46.69,63.37S38.93,65.72,34,77.13C28.31,90,10.39,98.74,8.32,97.48c-1-.58-2.73-4.42-3.74-8.45h0c-1.2-4.74-1.35-9.73,2.13-10,6.44-.46,14.82-6.33,20.8-14.63s12.75-8.52,17.34-7l1.61,5.22Z"/><path class="cls-108" d="M4.58,80.27l.08-.12a2.21,2.21,0,0,1,.25-.32,2.64,2.64,0,0,1,1.34-.78c.33-.07.7-.1,1.1-.16l.61-.1.66-.15a10.83,10.83,0,0,0,1.4-.41,16.12,16.12,0,0,0,1.53-.57c.52-.21,1-.48,1.61-.74s1.1-.57,1.65-.92,1.13-.69,1.69-1.09,1.12-.8,1.69-1.22,1.12-.9,1.69-1.36,1.11-1,1.64-1.49,1.09-1,1.6-1.59,1-1.12,1.53-1.69,1-1.16,1.46-1.74L27.48,64c.47-.59.9-1.2,1.42-1.74.26-.28.5-.56.75-.82l.79-.76a9.06,9.06,0,0,1,.82-.71c.28-.22.54-.46.82-.65a13.46,13.46,0,0,1,1.74-1.08,12.51,12.51,0,0,1,1.75-.82,15.46,15.46,0,0,1,1.73-.53,14.66,14.66,0,0,1,1.63-.28c.53,0,1-.08,1.49,0a13.05,13.05,0,0,1,2.41.26,11.48,11.48,0,0,1,1.5.39l.52.16-.53-.14a14.48,14.48,0,0,0-1.52-.31,12.86,12.86,0,0,0-2.38-.15c-.47,0-1,.07-1.46.11a14.71,14.71,0,0,0-1.6.33,13.45,13.45,0,0,0-1.67.54,13.94,13.94,0,0,0-1.68.85,16.25,16.25,0,0,0-3.25,2.44c-.26.24-.51.49-.77.75l-.72.8c-.49.52-.92,1.15-1.39,1.74s-.9,1.21-1.36,1.81-.95,1.21-1.47,1.78-1,1.15-1.55,1.69-1.08,1.09-1.63,1.6-1.12,1-1.67,1.5-1.14.93-1.72,1.36-1.14.85-1.73,1.22S15.59,76,15,76.36s-1.15.6-1.7.89-1.11.51-1.65.72a16.65,16.65,0,0,1-3,.88L8,79l-.63.07c-.4,0-.77.06-1.09.11a2.57,2.57,0,0,0-1.34.69A2,2,0,0,0,4.58,80.27Z"/><path class="cls-109" d="M46.69,63.37S38.93,65.72,34,77.13C28.31,90,10.39,98.74,8.32,97.48c-1-.58-2.72-4.42-3.74-8.45,6.72,5.62,19.14-6.18,21.61-15C28.92,64.19,38.41,59.39,44,61.15a20.56,20.56,0,0,1,2.48,1.46Z"/><path class="cls-110" d="M78.72,105.82A45.09,45.09,0,0,1,63,116.57c-9.63,3.81-25.37-.82-25.51-1.36s2.79-18.79,3.1-25c0-.33,0-.64,0-.9,0-5,3.4-26.26,3.4-26.26.67-.14,10.58-2.31,16.82-2.18s9.09,1.36,9.09,1.36S74.8,74.45,75.26,80a27.56,27.56,0,0,1,0,4.45A55.67,55.67,0,0,1,74,92.76Z"/><path class="cls-111" d="M78.72,105.82A45.09,45.09,0,0,1,63,116.57c-9.63,3.81-25.37-.82-25.51-1.36s2.79-18.79,3.1-25A7.84,7.84,0,0,1,42,92.62c3.54,7.69,17-3.72,19.36-4.13S58.77,97.92,59.6,99.9,69.84,87.51,74.11,84.8a2.08,2.08,0,0,1,1.14-.35A57.23,57.23,0,0,1,74,92.76Z"/><path class="cls-112" d="M71.27,93.17l-.69,1.09c-.46.68-1.09,1.67-1.89,2.83S67,99.59,65.88,101c-.53.69-1.1,1.41-1.69,2.12a22.12,22.12,0,0,1-1.93,2.08,3.36,3.36,0,0,1-.58.46l-.15.11,0,0,0,0h0l-.08,0-.16.07L61,106a4.18,4.18,0,0,1-1.5,0,15.18,15.18,0,0,1-2.63-.78,39.74,39.74,0,0,1-4.35-2.07c-1.25-.67-2.24-1.29-2.94-1.71s-1.08-.69-1.08-.69l1.13.6c.73.39,1.77.91,3,1.52s2.75,1.29,4.38,1.9a14.35,14.35,0,0,0,2.55.72,3.62,3.62,0,0,0,1.27,0l.13,0,.16-.06.08,0h0s0,0,0,0l0,0,.13-.1a5,5,0,0,0,.52-.42,24,24,0,0,0,1.9-2c.59-.7,1.16-1.4,1.7-2.09,1.09-1.37,2.1-2.66,2.94-3.78Z"/><path class="cls-113" d="M47.12,105.77l.78.31c.49.2,1.2.46,2,.82l2.87,1.17c1,.42,2.17.89,3.29,1.32l1.68.64c.56.2,1.11.4,1.64.54a4,4,0,0,0,1.54.19,4.26,4.26,0,0,0,1.35-.35,8.36,8.36,0,0,0,1.84-1.13,7,7,0,0,0,.62-.55,6.27,6.27,0,0,1-.55.63,7.1,7.1,0,0,1-1.78,1.33,4.58,4.58,0,0,1-1.45.48A3.91,3.91,0,0,1,59.3,111c-.56-.14-1.12-.31-1.69-.51s-1.14-.41-1.7-.63c-1.14-.44-2.25-.92-3.28-1.39s-2-.93-2.81-1.33-1.49-.75-2-1S47.12,105.77,47.12,105.77Z"/><path class="cls-114" d="M71.09,108.37a36,36,0,0,0,.77,3.81c.25.59,7.93-1.86,9.36-5.42l-1.34-4.48Z"/><path class="cls-115" d="M74.08,109.09c-4.68,1.6-3.69.4-5-1.8-.6-1-1-3.43-1.28-6a49.59,49.59,0,0,1-.22-8c.3-2.8,1.59-9.29,1.5-10.49s-7-22.79-7-22.79c.8-.2,7.07.1,9.07,1.2S78.87,74.41,79.57,79s-1.8,11.19-1.8,11.19a89.61,89.61,0,0,0,2.29,9.69c0,.11.08.21.11.31C81.25,103.09,78.76,107.49,74.08,109.09Z"/><path class="cls-116" d="M62.12,60a2.11,2.11,0,0,1,.32,0,8.76,8.76,0,0,1,.92-.06,32.14,32.14,0,0,1,3.3.11c.68.06,1.42.14,2.19.28a8.86,8.86,0,0,1,2.42.69l.29.2a3.27,3.27,0,0,1,.27.24c.16.16.3.34.45.51.27.36.53.72.78,1.11.5.75,1,1.55,1.4,2.34.85,1.62,1.63,3.27,2.32,4.84s1.24,3.07,1.68,4.36a29.64,29.64,0,0,1,.9,3.18c.09.39.13.71.16.92s0,.32,0,.32-.09-.44-.31-1.21-.59-1.83-1.09-3.1S77,72,76.34,70.42s-1.5-3.18-2.37-4.76c-.42-.8-.86-1.59-1.34-2.34-.24-.37-.49-.73-.74-1.07a4.72,4.72,0,0,0-.41-.48c-.07-.08-.13-.12-.2-.19a2.21,2.21,0,0,0-.23-.17,10.5,10.5,0,0,0-2.27-.72c-.76-.16-1.48-.27-2.15-.36-1.35-.17-2.48-.28-3.27-.31-.4,0-.7,0-.91,0A1.64,1.64,0,0,0,62.12,60Z"/><path class="cls-117" d="M74.08,109.08c-4.68,1.61-3.69.41-5-1.79-.6-1-1-3.43-1.28-6,3.73,4.15,9,2.38,12.23-1.36l.11.3C81.25,103.09,78.76,107.48,74.08,109.08Z"/><path class="cls-118" d="M31.39,108.18l-1.8,6s3.28,3.29,11.52,4.46,13.22.21,13.33-.11-.32-5.4-.32-5.4Z"/><path class="cls-119" d="M53.87,101.35c.77,5,1.85,11.76,1.11,12.5-1.09,1.08-12.89.68-17.24-.41S30.28,109.5,30,106.5c-.24-2.58,2.06-10.65,2.95-16.83.15-1,.25-1.91.31-2.76C33.67,80.65,36,64.55,36,64.55c.23-.12.48-.23.74-.35,3.2-1.39,8.69-2.63,15.37-4.37a121.78,121.78,0,0,1,3.68,15,32,32,0,0,1,.39,3.74c.27,6.81-3,15.38-3,17.69C53.21,97,53.5,99,53.87,101.35Z"/><path class="cls-120" d="M55.81,74.86a47.71,47.71,0,0,1-6.83.49C38,75.37,34.49,68.59,36.76,64.2c3.2-1.39,8.69-2.63,15.37-4.37A121.78,121.78,0,0,1,55.81,74.86Z"/><path class="cls-121" d="M55,113.85c-1.09,1.08-12.89.68-17.24-.41a14.15,14.15,0,0,1-2.45-.86c-3-1.38-5.06-3.68-5.28-6.08-.24-2.58,2.06-10.65,2.95-16.83,1.54,2.18,3.93,2.69,7.06,1.06l.18-.09c8.87-4.65,8.5-6.31,4.52,3.23-2.82,6.77,3.17,8.85,9.14,7.48C54.64,106.34,55.72,113.11,55,113.85Z"/><path class="cls-122" d="M39.3,102.69c.66,4.64-1.79,2.13-1.94,2,.07.26,1.26,4.86-2.07,7.92-3-1.38-5.06-3.68-5.28-6.08-.23-2.58,2.06-10.65,3-16.83,1.53,2.19,3.93,2.69,7.06,1.06l.18-.09C39.55,95,38.94,100.2,39.3,102.69Z"/><path class="cls-123" d="M43.07,68.27c0,.07.09.14.14.21,5.11,7.07,19.8,6.09,24.66.24,4.26-5.12,2.64-12.39-6.15-14.44a22.1,22.1,0,0,0-4.17-.54C42.15,53.14,38.19,61.25,43.07,68.27Z"/><path class="cls-124" d="M65.72,58.6c2.67,1.82,1.65,6.86-3.95,8.72s-13.61-1.52-13.45-2.7,4.7,1,9.75.9,6.45-2,6.06-4.53S64.56,57.81,65.72,58.6Z"/><path class="cls-125" d="M43.07,68.27a7.43,7.43,0,0,1,2.65-4c2.11-1.5,4.91-1.38,7.48-1.36s5.47-.24,7.16-2.18c1.49-1.73,1.56-4.16,1.36-6.49a22.33,22.33,0,0,0-4.17-.54C42.15,53.14,38.19,61.25,43.07,68.27Z"/><path class="cls-126" d="M67.86,68.72l.66-.78a10,10,0,0,0,.66-1,5.52,5.52,0,0,0,.34-.64,6.5,6.5,0,0,0,.33-.75c.08-.27.17-.55.26-.84s.12-.61.18-.93a5.47,5.47,0,0,0,.08-1,4.63,4.63,0,0,0-.06-1.05,5.18,5.18,0,0,0-.22-1.08,5.39,5.39,0,0,0-.38-1.06,5.69,5.69,0,0,0-.54-1c-.11-.16-.2-.33-.32-.48l-.37-.44c-.12-.15-.24-.3-.37-.44l-.43-.38a6,6,0,0,0-.88-.71,7.65,7.65,0,0,0-.93-.59l-1-.5a9.62,9.62,0,0,0-1-.37,6,6,0,0,0-.94-.3c-.63-.15-1.21-.32-1.76-.41a17.41,17.41,0,0,0-2.68-.25c-.65,0-1,0-1,0l1,.13a23.28,23.28,0,0,1,2.61.48c.53.11,1.09.32,1.69.5a6.56,6.56,0,0,1,.89.35c.3.14.62.24.92.4l.9.5c.31.16.57.39.87.58a5.92,5.92,0,0,1,.82.68l.39.36c.12.13.22.27.34.4l.35.41a4.78,4.78,0,0,1,.29.44,4.88,4.88,0,0,1,.51.92,5,5,0,0,1,.37,1,4.68,4.68,0,0,1,.24,1,5.43,5.43,0,0,1,.1,1,7.3,7.3,0,0,1,0,.94c0,.31-.06.61-.12.89s-.14.56-.2.82-.19.5-.27.74a3.17,3.17,0,0,1-.27.65c-.21.39-.36.75-.54,1Z"/><path class="cls-127" d="M43.64,74.71A38.15,38.15,0,0,1,42,85.24c-.23.7-.49,1.41-.78,2.12-2.26,5.65-6,11.49-7.73,17.46-1.92,6.71-6.49,10.14-12,8.24-3.53-1.23-4.39-5.3-3.84-10.4.58-5.48,2.81-12.15,5.07-17.69C27,74.62,31.88,65.58,36.67,64.36a3.4,3.4,0,0,1,.46-.09C42.21,63.52,43.7,68.91,43.64,74.71Z"/><path class="cls-128" d="M41.26,87.36c-2.26,5.65-6,11.49-7.73,17.46-1.92,6.71-6.49,10.14-12,8.24-3.53-1.23-4.39-5.3-3.84-10.4.62,1.3,1.54,2.07,2.92,1C24,101,26.42,90.28,28.25,91.2s2.34,9.28,3.46,6.63S33.54,82.53,34.15,83s.92,8,2.75,7.55A6.16,6.16,0,0,0,41.26,87.36Z"/><path class="cls-129" d="M43.64,74.71C37,73,35,67.93,36.67,64.36a3.73,3.73,0,0,1,.46-.09C42.21,63.52,43.7,68.91,43.64,74.71Z"/><path class="cls-130" d="M37.13,64.27l-.48.11a6.08,6.08,0,0,0-1.27.56,9,9,0,0,0-1.72,1.29,18.75,18.75,0,0,0-1.87,2.08A42.19,42.19,0,0,0,28,74.25c-1.23,2.27-2.4,4.77-3.5,7.29S22.35,86.61,21.46,89s-1.66,4.71-2.23,6.71-1,3.66-1.19,4.85c-.11.59-.19,1.06-.24,1.38s-.08.49-.08.49,0-.17.05-.49.08-.8.17-1.4a48.14,48.14,0,0,1,1-4.92c.52-2,1.2-4.34,2.08-6.78s1.91-5,3-7.55,2.33-5,3.58-7.3a38.35,38.35,0,0,1,3.94-5.91,12.57,12.57,0,0,1,3.79-3.27,5.25,5.25,0,0,1,1.32-.49Z"/><path class="cls-131" d="M37.23,75.35s0,.37-.07,1S37,78,36.94,79.07s-.22,2.42-.38,3.81-.32,2.87-.49,4.35-.37,3-.57,4.34-.39,2.68-.55,3.78-.33,2-.43,2.67-.18,1-.18,1,0-.37.06-1,.11-1.58.23-2.69.22-2.42.37-3.81.32-2.87.5-4.35.37-3,.57-4.35.39-2.67.55-3.78.33-2,.43-2.67S37.23,75.35,37.23,75.35Z"/><path class="cls-132" d="M32.59,91s0,.29-.05.8-.12,1.24-.25,2.11-.24,1.89-.42,3-.35,2.24-.55,3.39-.42,2.31-.63,3.38-.44,2.08-.62,2.94-.36,1.57-.47,2.07l-.2.78s0-.29.09-.8.14-1.25.26-2.11.26-1.89.43-3,.37-2.24.57-3.39.41-2.31.62-3.38.43-2.08.6-2.94.35-1.58.45-2.07S32.59,91,32.59,91Z"/><path class="cls-133" d="M23.08,97.38c-2.83,1.39-3.66,10.44.29,12s8.07-.29,7.33-6S26.12,95.88,23.08,97.38Z"/><path class="cls-134" d="M23.31,106.79c1.15,1.38,5.27,1.21,6.13.69s1-3.33,1-3.33,4.46-4.65,3-5.46-6.3,2.3-6.3,2.3l-3.6.75-.18,4.76Z"/><path class="cls-135" d="M23.08,94.6s4.52-4.27,7-4.08-3.28,4.61-3.28,4.61S31,92.56,31.8,93.94s-6.16,6-6.16,6,4.92-1.84,5.38-.59-5.32,3.92-5.32,3.92,4.27-1.42,4.6,0c.25,1.12-3.1,3-4.65,3.86a2.58,2.58,0,0,1-1.94.24c-.94-.26-2-1-1.44-2.91a2.27,2.27,0,0,1-.54-2.89,3.41,3.41,0,0,1-.11-3.51S20.46,96.65,23.08,94.6Z"/><path class="cls-136" d="M55.56,38.92l-1.82-1a1.9,1.9,0,0,0-2.56.92,2,2,0,0,0,.44,2.65l2.25.68Z"/><path class="cls-137" d="M69,46.45a8.4,8.4,0,0,1,0,.85,23.12,23.12,0,0,1-.55,3.51c-1.35,5.9-4.87,12.29-9,12.28-4.35,0-7.44-5.8-8.7-12.32,0-.14,0-.28-.08-.42-.18-1-.31-2-.41-3-.71-7.78,4.73-11.09,9.9-10.92C64.63,36.57,69.18,39.91,69,46.45Z"/><path class="cls-21" d="M62.85,58.68A15,15,0,0,1,58,57.44,2.54,2.54,0,0,0,59.77,60,2.8,2.8,0,0,0,62.85,58.68Z"/><path class="cls-138" d="M62.05,51.52a5.89,5.89,0,0,0,.1,1,8.6,8.6,0,0,0,.25,1,6.35,6.35,0,0,0,.9,1.9l0-.24a.31.31,0,0,1,0,.08l0,.11a1.13,1.13,0,0,1-.12.21,1.2,1.2,0,0,1-.35.36,2,2,0,0,1-.49.28c-.18.07-.37.15-.57.21A2.09,2.09,0,0,0,63,56.38a1.64,1.64,0,0,0,.59-.39,1.78,1.78,0,0,0,.23-.31,1.26,1.26,0,0,0,.14-.38.3.3,0,0,0,0-.21l0,0c-.33-.53-.58-1.14-.87-1.73S62.41,52.12,62.05,51.52Z"/><path class="cls-139" d="M59.87,48.46s0-1.06-.61-1.3-.42.51-.42.51-2.22-.49-3,1.16A9.33,9.33,0,0,1,59.87,48.46Z"/><path class="cls-140" d="M64.37,48.31s.12-.93.7-1.06.28.49.28.49,2-.18,2.34,1.36A7.41,7.41,0,0,0,64.37,48.31Z"/><path class="cls-141" d="M57.22,51.28a1,1,0,1,0,1-1.17A1.1,1.1,0,0,0,57.22,51.28Z"/><path class="cls-142" d="M64.33,51.18a1,1,0,1,0,2,.06,1,1,0,1,0-2-.06Z"/><path class="cls-143" d="M69,46.45a8.4,8.4,0,0,1,0,.85A4.35,4.35,0,0,1,68.4,44a21.55,21.55,0,0,0-13.21-.13s.94,2.94-1.25,3.51a13.74,13.74,0,0,0-.57,4.36,16,16,0,0,1-2.69-1.4c-.19-1-.32-2-.41-3-.71-7.78,4.73-11.09,9.9-10.92C64.63,36.57,69.18,39.91,69,46.45Z"/><path class="cls-144" d="M51.64,50s-2.1-3.12-3.91-.95,1.52,7.64,4.71,6Z"/><path class="cls-145" d="M68.4,50.81s.15-.47.34-1.31c.08-.42.18-.93.27-1.52a12,12,0,0,0,.17-2,9.24,9.24,0,0,0,0-1.16c0-.2,0-.41,0-.61s-.07-.42-.11-.63A9.31,9.31,0,0,0,68.12,41a8.92,8.92,0,0,0-4.22-4A10.13,10.13,0,0,0,61,36.17a11.06,11.06,0,0,0-2.88.08,9.73,9.73,0,0,0-4.65,2,6.91,6.91,0,0,0-.79.72,9.51,9.51,0,0,0-.61.74,7.88,7.88,0,0,0-.47.71,4.81,4.81,0,0,0-.33.63,5.84,5.84,0,0,0-.38.92c-.08.22-.11.34-.11.34l.15-.32c0-.11.1-.24.17-.39l.28-.5a6.1,6.1,0,0,1,.37-.59c.14-.21.32-.42.51-.65a9.3,9.3,0,0,1,1.43-1.33,9.73,9.73,0,0,1,4.5-1.73,10.9,10.9,0,0,1,2.74,0,9.86,9.86,0,0,1,2.69.78A8.3,8.3,0,0,1,66,39.13a8.45,8.45,0,0,1,1.66,2.14,10.36,10.36,0,0,1,.91,2.4c0,.2.1.4.13.6s0,.39.08.58A8.59,8.59,0,0,1,68.81,46a15.93,15.93,0,0,1,0,2c0,.59-.11,1.11-.17,1.53C68.49,50.32,68.4,50.81,68.4,50.81Z"/></g></g></svg>